<svg xmlns="http://www.w3.org/2000/svg" width="1000" height="130"><g style="line-height:125%;-inkscape-font-specification:PT Sans" font-size="131.983" letter-spacing="0" word-spacing="0" font-family="Cute Cartoon" fill="#80756d"><path style="-inkscape-font-specification:Cute Cartoon" d="M9.29 125.357c-.13-.264-.395-.396-.792-.264l-.66.528c-.396.66-.396 1.187-.264 1.45l.264.396.528.264c.132-1.187.53-1.978.925-2.373m-6.34-6.33c-.793-.526-1.718-.394-2.907.397l-.397.132.397.66c.66-.397 1.585-.66 2.642-.66l.264-.528m35.275 6.065c-.396.396-.396 1.187.265 2.637.396.396.66.527.925.396.132-1.187 0-2.242-.397-2.9-.264-.133-.528-.265-.793-.133M5.46 124.17c-.925.66-1.32 1.45-1.19 2.373l.133.132c.132.396.264.396.66.264.397-1.45.66-2.374.793-2.506l-.396-.264m35.012-.263c-.265.527-.397.923-.265 1.054 1.32 1.715 2.246 2.243 2.775 1.847.264-.132.264-.395 0-.66-.132-.395-.53-.79-1.19-1.054l-.66-1.055c-.132-.263-.396-.263-.66-.13m2.774-1.715c-.132.13-.132.527 0 1.186.66.395 1.453.658 2.378.527l.132-.132c.397-.132.397-.396.132-.66l-2.642-.922m-39.768-.396c-.132-.396-.793-.264-1.718.132l-.66.394c-.264.528-.264.923-.132 1.055.132.395.396.395.66.13l.264-.79.53-.264h.924c.264-.132.264-.395.132-.66M8.63 18.035c.397-.132.53-.263.397-.527-.66 0-1.32-.527-2.114-1.45l-.132.527v.527c0 .265.397.53 1.058.924h.793M5.33 27.79c1.32-.13 2.114-.526 2.51-1.45l-.53-.263c-.923.66-1.716.923-2.51.923v.79h.53m24.706-10.81c-1.32.79-1.982 1.45-1.85 1.977.132.264.397.396.66.264.794-.263 1.454-.922 2.115-1.977-.133-.263-.397-.395-.926-.263m-23.12 3.296c-.265 0-.926-.528-2.115-1.45-.397 0-.53.13-.53.527v.263c.53.792 1.322 1.187 2.51 1.055l.133-.394m22.725.132c-.132.13-.265.395-.397.922.133.264.266.396.53.264l1.19-.527c.66.132 1.32.132 1.716 0 .265-.132.397-.264.265-.528-.13-.66-1.32-.792-3.302-.132m1.585 2.9c-.66.528-.925.923-.793 1.055l2.643.923c.396-.132.528-.264.396-.66l-.133-.263c-.66-.66-1.32-.923-2.114-1.055m-26.16 1.45c1.057-.13 1.586-.527 1.586-.922-.133-.396-.265-.528-.53-.528l-.792.66h-.53l-.792-.528c-.396.132-.528.264-.396.66 0 .263.264.527.793.66h.66M71.563 34.383c-.264 0-.396.132-.528.528v.264c1.057 1.582 1.585 2.77 1.585 3.692h.793v-.527c-.66-2.375-1.19-3.693-1.85-3.957m6.21 0c-.397 2.11-.925 3.692-1.586 4.747l.265.527c1.453-1.45 2.113-3.032 2.113-4.483l-.528-.79h-.264m5.417 2.9c-.397 0-.925.923-1.85 2.77l.264.526c.66-.132 1.19-1.055 1.85-2.505 0-.132-.132-.396-.264-.79m3.83 1.317c-.395.132-1.056.923-1.716 2.242v.79h.132c.132 0 .792-.79 1.85-2.24v-.264l-.265-.528m-35.01-27.82c-.397 0-.53.133-.53.528 0 .396.265 1.45.926 2.9l.792-.527-1.19-2.9m4.36.527c-.395 0-.66.528-.79 1.582l.263.528c.53-.132.794-.66.794-1.582l-.265-.528m4.36.79c-.133 0-.926 1.056-2.38 3.297 0 .396.133.528.53.528 1.453-1.582 2.113-2.77 2.113-3.56V12.1h-.264m5.945 107.587c-2.51 1.45-3.832 2.9-3.832 4.22l.264.527c.793-1.45 2.114-2.9 3.832-4.22l-.265-.527m22.196.792c-.396 0-.528.13-.528.526 0 .132.66.66 1.85 1.582.396 0 .53-.132.53-.527 0-.263-.662-.79-1.85-1.58m-17.045 2.9c-1.453.79-2.114 1.58-2.114 2.504v.528l.265.527h.264c0-1.32.793-2.374 2.378-3.033 0-.396-.132-.528-.528-.528h-.265m7.003 0c-.53 0-.793 1.318-.793 4.086v1.055l.264.53.53-.265c0-.923.132-2.637.264-4.878l-.264-.528m4.624.527c-.396 0-.53.13-.53.527v1.45c.398 1.582.794 2.373 1.323 2.373.396 0 .528-.13.528-.527-.925-.923-1.32-2.11-1.32-3.823M96.4 7.62c-.265 0-.397.13-.53.526 0 .395.398 1.45 1.058 2.9l.793-.527-1.32-2.9m4.36.526c-.398 0-.662.527-.794 1.582l.263.527c.53-.13.793-.66.793-1.582l-.264-.527m4.36.79c-.133 0-.925 1.188-2.246 3.43 0 .263.132.394.528.394 1.32-1.582 1.982-2.768 1.982-3.56v-.263h-.264M127.56 116.787c-.13 0-1.056 1.318-2.773 4.087v.527h.264c.662-.394 1.72-1.844 3.04-4.086v-.527h-.53m7.004.79c.132.66 1.19 1.583 2.906 2.77h.53v-.528c-1.72-1.715-2.776-2.506-2.908-2.506l-.528.264m-5.417 2.505v.527c0 .79.132 1.45.528 2.11l.53-.264c0-.66-.133-1.45-.265-2.373l.264-1.45v-.264h-.793l-.263 1.713m2.906-1.45c0 .66.66 2.11 1.982 4.35l.53-.263c0-.396-.662-1.846-1.983-4.35l-.53.263M170.005 8.41c-.66 0-1.19 1.45-1.586 4.35 0 .396.132.528.528.528s.793-1.45 1.453-4.35c0-.397-.13-.528-.395-.528m-11.89 2.24c-.265 0-.53.396-.794 1.056.133 1.714.53 2.637 1.058 2.637l.53-.264c-.133-2.242-.398-3.43-.794-3.43m-4.492 1.056c-.264 0-.396.132-.396.527v.79l1.19 2.506c.527-.264.79-.528.79-.66v-.79c-.79-1.583-1.32-2.374-1.584-2.374m22.725.79c-.397.133-.793.792-.925 2.11v.264c0 .264.132.396.396.396.397 0 .793-.79 1.057-2.242 0-.395-.132-.527-.528-.527m3.7 1.318c-.662.66-1.454 2.11-2.115 4.35 0 .53.132.792.53.792h.263c.264 0 .925-1.582 1.85-4.614 0-.396-.133-.528-.53-.528M153.49 119.687c0 .528.132.792.396.792.925-.793 1.85-2.11 2.643-3.825-.266-.527-.53-.79-.794-.79l-2.246 3.822m5.417-1.45c-.53 0-1.057.923-1.586 2.77v1.054c0 .396.134.528.53.528h.264c.396-1.582.793-2.77 1.19-3.56 0-.527-.133-.79-.397-.79m4.096 1.318c.396 3.296 1.057 4.878 2.246 4.878.66 0 1.056-.264 1.056-.79-1.057-.66-1.586-1.188-1.586-1.583l-.925-3.032-.792.528m7.002.395c0 .792.528 1.847 1.717 3.166.397 0 .53-.132.53-.528 0-.923-.662-1.978-1.85-2.9h-.397v.263m4.888-.263c-.396 0-.528.132-.528.528.396 1.714.793 2.637 1.19 2.637l.527-.264c-.264-1.978-.66-2.9-1.19-2.9M207.894 1.817c.133 1.714.397 2.505.793 2.505l.53-.13c0-.924-.266-1.715-.794-2.638l-.53.263m9.514.264c-.925.792-1.32 1.847-1.32 3.033l.263.528c.264 0 .793-1.054 1.586-3.032 0-.395-.133-.527-.53-.527m-18.1.528c-.264 0-.396.132-.528.528V3.4l2.378 2.768.53-.263c0-.66-.794-1.714-2.38-3.297m5.153 117.08c.528-.923.792-1.715.792-2.506l-.528-.263c-.397 0-.53.922-.66 2.636l.395.13m7.794-3.558c0 1.318.397 2.373 1.322 3.164.396-.132.528-.264.528-.527-.793-2.11-1.32-3.165-1.585-3.165l-.266.528m-17.307 2.11c.132.395.264.527.528.527 1.586-1.583 2.378-2.77 2.378-3.428l-.528-.264-2.378 2.9v.264M232.824 10.387c-.397 0-.53.132-.53.528v1.318l.266 1.32h.792c-.132-1.715-.396-2.77-.528-3.166m5.68 0c-1.056 1.055-1.584 2.505-1.584 4.22.132 0 .264.13.264.263l.528-.264c.265-1.714.66-3.032 1.32-3.69 0-.265-.13-.397-.527-.53m-10.57 1.056c-.396 0-.528.132-.528.527v.263c1.057 1.45 1.585 2.11 1.717 2.11.397 0 .53-.132.53-.528v-.263l-1.72-2.11m35.013 0c-.396 0-.66.923-.793 2.637l.265.526c.527-.263.79-.527.79-.79v-1.847l-.263-.528m4.096.264c-.925.66-1.453 1.714-1.453 3.164v.264h.264c.264 0 .793-.923 1.453-2.9l-.264-.528m-8.192.527c-.395 0-.527.132-.527.527v.528c.66 1.187 1.057 1.846 1.32 1.846l.53-.264-1.322-2.637m13.213 0c-.396 0-.792.79-1.056 2.373v.264h.264c.265 0 .66-.66 1.19-2.11 0-.263-.132-.395-.397-.527m-12.155 102.972c.133 1.977.53 2.9 1.057 2.9h.133c-.133-2.11-.265-3.164-.66-3.164l-.53.265m-15.986.527c-1.19 1.187-1.85 2.373-1.85 3.692h.793c0-.66.396-1.582 1.32-2.9v-.792h-.263m4.36.528c-.53 0-.925.79-1.32 2.373v.79c0 .264.13.396.527.396l.528-.264c0-.132-.132-.264-.265-.66 0-.527.265-1.186.793-2.11l-.264-.526m4.624 1.582c-.264 0-.396.13-.528.527v1.186c.264.66.924 1.054 1.85 1.054v-.527c0-.264-.397-.527-1.058-.66 0-.13.132-.395.265-.79 0-.528-.133-.79-.53-.79M291.42 116.787c-.13 0-1.056 1.318-2.773 4.087v.527h.264c.66-.394 1.718-1.844 3.04-4.086v-.527h-.53m7.004.79c.132.66 1.19 1.583 2.906 2.77h.53v-.528c-1.72-1.715-2.776-2.506-2.908-2.506l-.528.264m-5.417 2.505v.527c0 .79.132 1.45.528 2.11l.53-.264c0-.66-.134-1.45-.266-2.373l.264-1.45v-.264h-.793l-.263 1.713m2.906-1.45c0 .66.66 2.11 1.982 4.35l.53-.263c0-.396-.662-1.846-1.983-4.35l-.53.263M377.47 87.78v-6.723m-.792 1.845v.528c0 .923-.397 1.714-1.32 2.11m-8.72-77.13c-.662 0-1.19 1.45-1.587 4.35 0 .396.133.528.53.528.396 0 .792-1.45 1.453-4.35 0-.397-.132-.528-.396-.528m-11.89 2.24c-.265 0-.53.396-.794 1.056.132 1.714.53 2.637 1.057 2.637l.53-.264c-.134-2.242-.398-3.43-.794-3.43m-4.492 1.056c-.264 0-.397.132-.397.527v.79l1.19 2.506c.528-.264.792-.528.792-.66v-.79c-.793-1.583-1.322-2.374-1.586-2.374m22.724.79c-.396.133-.792.792-.924 2.11v.264c0 .264.132.396.396.396.396 0 .793-.79 1.057-2.242 0-.395-.132-.527-.53-.527m3.7 1.318c-.66.66-1.453 2.11-2.113 4.35 0 .53.132.792.528.792h.265c.264 0 .924-1.582 1.85-4.614 0-.396-.133-.528-.53-.528m-26.555 105.872c0 .528.132.792.396.792.925-.793 1.85-2.11 2.642-3.825-.264-.527-.528-.79-.792-.79l-2.246 3.822m5.417-1.45c-.53 0-1.058.923-1.587 2.77v1.054c0 .396.132.528.53.528h.263c.396-1.582.793-2.77 1.19-3.56 0-.527-.133-.79-.397-.79m4.094 1.318c.397 3.296 1.057 4.878 2.246 4.878.66 0 1.057-.264 1.057-.79-1.057-.66-1.585-1.188-1.585-1.583l-.925-3.032-.793.528m7.003.395c0 .792.528 1.847 1.717 3.166.397 0 .53-.132.53-.528 0-.923-.662-1.978-1.85-2.9h-.397v.263m4.888-.263c-.396 0-.528.132-.528.528.396 1.714.792 2.637 1.19 2.637l.527-.264c-.264-1.978-.66-2.9-1.19-2.9M388.672 15.134c.132.79.925 1.846 2.51 3.296h.264v-.528c0-.263-.792-1.186-2.246-2.768h-.528m4.888 0c-.396 0-.528.132-.528.395v.263c0 .527.264 1.187.793 2.11.396 0 .528-.132.528-.528 0-.395-.264-1.186-.793-2.24m13.344.658c-1.19 1.582-1.717 2.77-1.717 3.692h.528c1.19-2.11 1.85-3.165 1.982-3.165 0-.263-.132-.395-.528-.527h-.266m6.74.264c-.53.263-1.058 1.054-1.587 2.373 0 .132.132.395.264.79h.266c.792-1.713 1.453-2.504 2.113-2.636 0-.264-.133-.395-.53-.527h-.527m-2.247 100.203c0 .263.53 1.582 1.454 3.823h.793v-.264c-.925-2.374-1.454-3.56-1.718-3.56h-.53m-14.003 2.9c-.397 0-.925 1.055-1.32 3.296l.527.264c.395 0 .66-1.187 1.056-3.56h-.264m6.21 0c-.66 0-1.19 1.45-1.85 4.35.264.528.528.792.792.792h.265v-1.582c0-.396.395-1.45 1.056-3.164l-.265-.396m4.36 1.45c.53 2.242 1.058 3.428 1.587 3.428.396 0 .528-.13.528-.527v-.263l-1.585-2.9-.53.263M444.007 1.817c.133 1.714.397 2.505.793 2.505l.53-.13c0-.924-.266-1.715-.794-2.638l-.53.263m9.514.264c-.925.792-1.32 1.847-1.32 3.033l.263.528c.264 0 .793-1.054 1.586-3.032 0-.395-.134-.527-.53-.527m-18.1.528c-.265 0-.397.132-.53.528V3.4l2.38 2.768.528-.263c0-.66-.793-1.714-2.378-3.297m15.06 113.783l.266 1.32h.66v-1.055c0-.264-.132-.395-.396-.527l-.53.263m-5.15 1.583c-.398 0-.53.132-.53.528v1.45c.396.66.793 1.056 1.057 1.056.264 0 .396-.132.396-.527-.396-.397-.792-1.32-.924-2.507m-10.175 1.055c-.396 0-.528 1.187-.66 3.56.132 0 .264.132.264.264.395-.264.66-.528.66-.79v-1.847l.264-1.187h-.53m3.965.528c-.397 0-.662.527-.794 1.45 0 .66.397 1.45 1.057 2.11l.53-.264c0-.396-.266-.923-.794-1.846 0-.264.13-.66.527-1.055 0-.263-.132-.394-.528-.394M502.006 12.233c-.396.132-.793 1.055-1.453 3.033v.263h.528c.794-.924 1.19-1.715 1.19-2.638 0-.132-.132-.395-.264-.66m-14.93.66c-.66.264-1.056.923-1.056 1.846l.264.528c.396 0 .66-.66 1.057-1.846l-.264-.528m-4.624.528c-.396 0-.528.132-.528.527.66 1.055 1.057 1.582 1.32 1.582h.794v-.264c-.925-1.187-1.454-1.846-1.586-1.846m8.456 0c-.264 0-.66.66-1.19 2.11v.263h.397c.264 0 .66-.66 1.32-1.846 0-.264-.13-.395-.527-.527m-12.816 1.318c1.19 1.45 1.85 2.11 1.982 2.11.396 0 .53-.132.53-.528 0-.395-.794-1.054-2.247-2.11h-.265v.528m-7.266 2.9c0 .133 1.057.66 3.303 1.45l.527-.263c-1.19-1.186-2.378-1.714-3.83-1.714v.53m20.874 96.246c0 .923.397 1.582 1.322 2.11h.528l.53-.264c-1.058-1.055-1.72-1.714-1.85-2.11l-.53.264m-8.19 1.846c-.66.264-1.058.79-1.058 1.714v.79l.265.53h.264c.397-1.715.66-2.506 1.058-2.506 0-.396-.132-.528-.53-.528m6.475.264c-.396 0-.528.132-.528.527 0 .923.396 1.582 1.19 1.978.395 0 .527-.13.527-.527v-.263c-.396 0-.793-.528-1.19-1.714m-3.698.527c-.397.132-.793.79-1.057 1.978.264.528.528.792.793.792h.528l-.264-1.055c0-.395.132-.923.528-1.45l-.528-.264M534.883 8.41c-.66 0-1.19 1.45-1.585 4.35 0 .396.132.528.528.528.397 0 .793-1.45 1.454-4.35 0-.397-.132-.528-.397-.528m-11.89 2.24c-.265 0-.53.396-.793 1.056.132 1.714.528 2.637 1.057 2.637l.528-.264c-.132-2.242-.396-3.43-.793-3.43m-4.492 1.056c-.264 0-.396.132-.396.527v.79l1.19 2.506c.528-.264.792-.528.792-.66v-.79c-.793-1.583-1.32-2.374-1.586-2.374m22.725.79c-.396.133-.793.792-.925 2.11v.264c0 .264.132.396.397.396.396 0 .792-.79 1.057-2.242 0-.395-.133-.527-.53-.527m3.7 1.318c-.66.66-1.453 2.11-2.113 4.35 1.41 2.51 2.5-3.354 2.643-3.822 0-.396-.132-.528-.53-.528M518.37 125.49c0 .526.132.79.397.79.924-.923 1.85-2.11 2.642-3.824-.264-.527-.528-.79-.793-.79l-2.246 3.823m5.417-1.452c-.528 0-1.057.923-1.585 2.77v1.054c0 .395.132.527.528.527h.264c.397-1.583.793-2.77 1.19-3.56 0-.528-.133-.792-.397-.792m4.096 1.187c.397 3.296 1.058 5.01 2.247 5.01.66 0 1.057-.264 1.057-.79-1.057-.66-1.585-1.188-1.585-1.583l-.926-3.032-.793.395m7.003.527c0 .79.53 1.846 1.718 3.165.397 0 .53-.132.53-.528 0-.924-.66-1.978-1.85-2.9h-.397v.262m4.89-.263c-.398 0-.53.13-.53.526.397 1.714.793 2.637 1.19 2.637l.528-.264c-.263-1.978-.66-2.9-1.188-2.9M568.306 116.787c-.133 0-1.057 1.318-2.775 4.087v.527h.265c.66-.394 1.718-1.844 3.04-4.086v-.527h-.53m7.003.79c.132.66 1.19 1.583 2.907 2.77h.528v-.528c-1.718-1.715-2.774-2.506-2.907-2.506l-.528.264m-5.417 2.505v.527c0 .79.133 1.45.53 2.11l.528-.264c0-.66-.132-1.45-.264-2.373l.264-1.45v-.264h-.793l-.264 1.713m2.908-1.45c0 .66.66 2.11 1.98 4.35l.53-.263c0-.396-.66-1.846-1.982-4.35l-.528.263M622.772 12.233c-.396.132-.793 1.055-1.453 3.033v.263h.527c.793-.924 1.19-1.715 1.19-2.638 0-.132-.133-.395-.265-.66m-14.93.66c-.66.264-1.056.923-1.056 1.846l.264.528c.396 0 .66-.66 1.057-1.846l-.265-.528m-4.624.528c-.396 0-.528.132-.528.527.66 1.055 1.057 1.582 1.32 1.582h.794v-.264c-.925-1.187-1.454-1.846-1.586-1.846m8.456 0c-.264 0-.66.66-1.19 2.11v.263h.397c.265 0 .662-.66 1.322-1.846 0-.264-.132-.395-.528-.527m-12.816 1.318c1.19 1.45 1.85 2.11 1.982 2.11.396 0 .53-.132.53-.528 0-.395-.794-1.054-2.247-2.11h-.265v.528m-7.266 2.9c0 .133 1.057.66 3.303 1.45l.528-.263c-1.19-1.186-2.378-1.714-3.83-1.714v.53m22.195 98.356h.528l.53-.264m-10.57 0c-.66.264-1.058.79-1.058 1.714v.79l.265.53h.264c.396-1.715.66-2.506 1.057-2.506 0-.396-.132-.528-.53-.528m6.475.264c-.397 0-.53.132-.53.527 0 .923.397 1.582 1.19 1.978.396 0 .528-.13.528-.527v-.263c-.396 0-.793-.528-1.19-1.714m-3.698.527c-.397.132-.793.79-1.057 1.978.264.528.528.792.793.792h.528l-.264-1.055c0-.395.132-.923.528-1.45l-.528-.264M650.364 113.227c.66.923 1.19 1.32 1.322 1.32h.264l.528-.265c-.924-.528-1.32-1.187-1.32-2.11h-.794v1.055m-8.19.79c-.926.397-1.322 1.188-1.322 2.638v.396h.793c0-.922.264-1.845.792-2.504v-.528h-.264m5.945 2.11c.265.395.53.66.793.66h.265l.53-.133-1.322-2.11h-.265v1.583m-3.435-1.055c-.396 0-.528.527-.66 1.582v.66c0 .395.132.527.528.527h.398l-.265-1.187c0-.264.132-.66.53-1.055v-.527h-.53M644.155.5c.132 1.713.264 2.636.66 2.636l.53-.264c0-.923-.265-1.714-.662-2.637l-.528.264m9.512.263c-.924.79-1.32 1.845-1.32 3.164l.263.395c.265 0 .793-1.054 1.586-3.032 0-.264-.132-.396-.53-.527m-18.1.527c-.263 0-.395.132-.527.527v.264l2.377 2.77.528-.264c0-.66-.793-1.714-2.378-3.296M673.357 9.728c0 .79.66 1.714 2.114 2.77h.266l.528-.133-2.378-2.9-.53.263m7.797 0c-.53 0-.925 1.055-1.322 3.296v.528h.794c.53-2.242.793-3.428.793-3.56v-.264h-.264m-13.477 3.296l2.378 2.9.53-.263c0-.922-.794-1.845-2.38-2.9h-.528v.264m-5.417 3.165c-.265 0-.397.13-.53.526v.264c0 .263.53.527 1.586.922l.265-.395-1.32-1.318m9.644 99.41c-1.85 1.187-3.17 2.77-3.963 4.88l.265.526h.264c1.32-2.637 2.64-4.22 3.83-4.615v-.79h-.396m7.135.264c-1.323 1.187-1.983 2.373-1.983 3.56v1.318c0 .396.132.528.528.528h.397l-.265-1.583c0-.79.66-1.845 1.85-3.296 0-.394-.132-.526-.528-.526m5.15 2.24v.265c0 .395.926 1.713 2.908 3.69.396 0 .528-.13.528-.527v-.527c-1.32-1.055-2.246-2.11-2.906-3.164l-.53.263M746.234 9.596c-.264 0-.793.528-1.585 1.714 0 .396.13.528.527.528.264 0 .66-.528 1.32-1.583v-.263l-.263-.396m-6.738.396c.66 2.24 1.19 3.428 1.585 3.428l.53-.264c0-.396-.53-1.45-1.586-3.428l-.528.264m-5.153 2.637c-.264 0-.396.13-.528.526 0 .264.925.923 2.642 1.846.397 0 .53-.132.53-.527 0-.132-.926-.792-2.644-1.846m-2.114 4.35c-.265 0-.397.13-.397.527 0 .264.396.66 1.19 1.055.395 0 .528-.132.528-.528 0-.263-.396-.66-1.32-1.054m27.348 102.048c-.264 0-.396.132-.396.528v.923c0 1.58.925 3.03 2.774 4.48.397 0 .53-.13.53-.526l-2.38-2.637v-2.24c0-.397-.13-.53-.528-.53m-11.76 3.56c-.263 0-1.452 2.11-3.434 6.198l.265.527c.66-.132 1.716-2.11 3.434-5.933 0-.133-.132-.396-.265-.792m4.095.264c-.66.132-1.057.923-1.057 2.24v.53c.397 1.713.53 2.635.53 2.9v.79h.263c.53-.263.794-.527.794-.79-.53-1.715-.793-2.77-.793-3.165v-.264c0-.395.133-.923.53-1.45 0-.132-.133-.396-.265-.79M790.226 113.227c.66.923 1.19 1.32 1.32 1.32h.265l.53-.265c-.925-.528-1.32-1.187-1.32-2.11h-.794v1.055m-8.192.79c-.924.397-1.32 1.188-1.32 2.638v.396h.792c0-.922.264-1.845.793-2.504v-.528h-.266m5.946 2.11c.264.395.528.66.793.66h.264l.528-.133-1.32-2.11h-.265v1.583m-3.435-1.055c-.397 0-.53.527-.66 1.582v.66c0 .395.13.527.528.527h.396l-.265-1.187c0-.264.132-.66.528-1.055v-.527h-.528M784.015.5c.133 1.713.266 2.636.662 2.636l.528-.264c0-.923-.264-1.714-.66-2.637l-.53.264m9.514.263c-.926.79-1.322 1.845-1.322 3.164l.264.395c.264 0 .793-1.054 1.585-3.032 0-.264-.132-.396-.528-.527m-18.102.527c-.264 0-.396.132-.528.527v.264l2.378 2.77.53-.264c0-.66-.794-1.714-2.38-3.296M821.014 1.817c.132 1.714.396 2.505.793 2.505l.528-.13c0-.924-.264-1.715-.793-2.638l-.528.263m9.513.264c-.925.792-1.322 1.847-1.322 3.033l.265.528c.264 0 .792-1.054 1.585-3.032 0-.395-.132-.527-.528-.527m-18.1.528c-.265 0-.397.132-.53.528V3.4l2.38 2.768.527-.263c0-.66-.792-1.714-2.378-3.297m5.153 117.08c.527-.923.792-1.715.792-2.506l-.53-.263c-.395 0-.527.922-.66 2.636l.397.13m7.794-3.558c0 1.318.396 2.373 1.32 3.164.398-.132.53-.264.53-.527-.793-2.11-1.322-3.165-1.586-3.165l-.264.528m-17.308 2.11c.132.395.264.527.53.527 1.584-1.583 2.377-2.77 2.377-3.428l-.53-.264-2.377 2.9v.264M851.096 9.596c.132 1.978.396 2.9.793 2.9.395 0 .527-.13.527-.527v-.528c0-1.187-.264-1.846-.792-1.978l-.53.132m5.154 1.055c-.398.133-.794.792-1.322 2.11l.264.528c.528 0 .925-.79 1.32-2.373v-.264h-.263m3.962 1.32c-1.453.922-2.114 1.582-2.114 2.11l.265.526c1.453-1.318 2.246-1.977 2.246-2.11 0-.263-.133-.395-.398-.527m-7.002 102.707c-.53.132-.925 1.055-1.32 2.637v1.32h.79v-1.056c0-.66.398-1.45 1.058-2.373v-.528h-.528m10.57.528c-.397 0-.53.132-.53.527.397.66.794 1.055 1.058 1.055l.53-.264c-.398-.923-.794-1.318-1.058-1.318m-7.796.527c-.264 0-.66.66-1.056 1.846 0 .79.264 1.582.792 2.24l.53-.262-.266-1.714.265-1.846c-.133 0-.266-.132-.266-.264m3.436 1.846c.528 1.055 1.057 1.582 1.453 1.582l.528-.264c0-.13-.263-.527-.923-1.318v-1.318h-.793l-.264 1.318M898.428 1.817c.132 1.714.396 2.505.793 2.505l.53-.13c0-.924-.265-1.715-.793-2.638l-.53.263m9.514.264c-.924.792-1.32 1.847-1.32 3.033l.264.528c.264 0 .792-1.054 1.585-3.032 0-.395-.133-.527-.53-.527m-18.1.528c-.264 0-.396.132-.528.528V3.4l2.378 2.768.528-.263c0-.66-.792-1.714-2.378-3.297m5.153 117.08c.528-.923.793-1.715.793-2.506l-.53-.263c-.395 0-.527.922-.66 2.636l.397.13m7.795-3.558c0 1.318.396 2.373 1.32 3.164.398-.132.53-.264.53-.527-.793-2.11-1.322-3.165-1.586-3.165l-.264.528m-17.308 2.11c.132.395.265.527.53.527 1.584-1.583 2.377-2.77 2.377-3.428l-.53-.264-2.377 2.9v.264M938.55 10.124c-.395 0-.79.66-1.056 1.845l.265.395-.266 1.582c0 .396.132.528.53.528h.263c.396 0 .53-.132.53-.528v-1.714l.263-1.846-.53-.263m7.532.527c-.66 0-1.19 1.32-1.585 3.825 0 .395.132.527.528.527.397 0 .793-1.187 1.453-3.56 0-.527-.132-.79-.396-.79m-14.797 1.054c1.057 2.505 1.98 3.955 2.642 4.35h.53v-.263c-.794-2.505-1.587-3.955-2.38-4.35h-.264l-.528.263m2.378 104.29c-2.114 2.77-3.17 4.614-3.17 5.405v.265h.527c1.454-1.582 2.51-3.164 3.17-4.878l-.527-.79m13.344 1.185c-.264 0-.396.132-.53.528.398 1.714 1.058 2.637 1.85 2.637.398 0 .53-.132.53-.528v-.264l-1.85-2.374m-4.888 1.583c-.398 0-.662.527-.794 1.582v.527c0 1.055.66 2.11 2.114 3.296.396 0 .528-.132.528-.527v-.264c-1.057-1.45-1.585-2.374-1.585-2.506 0-.132.132-.66.264-1.582 0-.264-.132-.396-.528-.527m-5.683.263c-.528 0-.924 1.055-1.057 3.296v1.055l.53.79c.527-.263.792-.527.792-.79v-2.242c0-.528.132-1.055.528-1.582 0-.264-.132-.396-.528-.528h-.265M970.052 15.134c.132.79.924 1.846 2.51 3.296h.264v-.528c0-.263-.793-1.186-2.246-2.768h-.528m4.888 0c-.396 0-.528.132-.528.395v.263c0 .527.264 1.187.792 2.11.397 0 .53-.132.53-.528 0-.395-.266-1.186-.794-2.24m13.344.658c-1.19 1.582-1.717 2.77-1.717 3.692h.528c1.19-2.11 1.85-3.165 1.982-3.165 0-.263-.132-.395-.53-.527h-.263m6.738.264c-.528.263-1.057 1.054-1.585 2.373 0 .132.132.395.264.79h.265c.793-1.713 1.454-2.504 2.114-2.636 0-.264-.133-.395-.53-.527h-.528m-2.246 100.203c0 .263.53 1.582 1.454 3.823h.792v-.264c-.925-2.374-1.453-3.56-1.717-3.56h-.53m-14.004 2.9c-.395 0-.923 1.055-1.32 3.296l.53.264c.395 0 .66-1.187 1.056-3.56h-.265m6.21 0c-.66 0-1.188 1.45-1.85 4.35.266.528.53.792.794.792h.264v-1.582c0-.396.397-1.45 1.057-3.164l-.264-.396m4.36 1.45c.53 2.242 1.058 3.428 1.587 3.428.396 0 .528-.13.528-.527v-.263l-1.585-2.9-.53.263"/></g><g style="line-height:125%;-inkscape-font-specification:PT Sans" font-size="131.983" letter-spacing="0" word-spacing="0" font-family="Cute Cartoon" fill="#a28a76"><path d="M18.63 20.436c-.926 0-2.38 1.186-4.36 3.428 0 1.714-.662 4.483-1.983 8.438-.264 7.12-.66 11.075-1.32 11.866-.397 10.68-.926 15.953-1.322 15.953l.264 1.056c0 5.933-.397 13.448-1.322 22.414.132 9.625.396 18.722.793 27.292-.396 2.24-.528 3.428-.528 3.824.396.66 1.19 1.054 2.114 1.054h4.888c.133 0 .66-.79 1.586-2.24.66 0 1.32-12 2.246-36.127h.528c1.982-.923 4.492-1.582 7.795-2.11l1.32 7.78c1.19 12.79 2.38 20.436 3.304 23.204.396 4.615.66 7.12 1.057 7.516 3.568-.132 5.55-.396 5.682-.528 1.32 0 2.378-1.318 3.04-3.955v-.528c-.398-.395-.662-1.054-.794-1.714 0-5.537-2.378-19.25-7.135-41.267-3.567-15.953-6.34-27.423-8.323-34.675-1.19-7.12-3.7-10.68-7.53-10.68M14.27 59.33c.395-3.032.924-6.328 1.85-9.756.395-11.207.66-16.745 1.056-16.745.132-6.99.66-10.548 1.32-10.548h.397c1.982 0 3.567 1.45 4.492 4.35 11.23 45.487 16.78 72.78 16.78 82.14-1.19.396-2.247.528-3.17.528h-.266c0-.923-.793-7.252-2.51-18.986-1.718-12.393-2.775-18.59-3.172-18.59-4.096.527-7.795 1.186-11.098 1.846-.925 1.318-1.453 1.977-1.717 1.977-.133 3.692-.265 6.33-.265 8.043-.66 7.515-1.19 16.612-1.585 27.556 0 .395-.132.527-.53.527h-1.848l-1.718.264c0-6.46.53-14.767 1.718-24.787v-3.824c0-1.582-.132-3.032-.265-4.35.397-3.824.53-9.494.53-17.01l.263-2.372c-.132 0-.264-.132-.264-.264m1.32-31.906c0 .263-.264 3.56-.793 9.756v2.9c-1.057 1.45-1.585 2.11-1.717 2.11l.132-3.164V37.97l.793-1.054v-.395h-.793c0-1.58.66-4.614 1.85-9.096h.528m5.417 1.582c-.925 0-1.717 4.746-2.378 14.107 0 3.296 0 11.603-.133 24.787l-.264 2.242 1.19.79c1.188-.527 1.98-.79 2.377-.79 2.114 0 4.756-.132 7.927-.264l.793.527c1.057-.79 1.585-1.318 1.585-1.45v-.264c0-.394-.396-.526-1.057-.526-.925-3.032-1.585-4.615-1.717-4.615-1.585-6.593-3.7-14.504-6.473-23.733-.66-7.25-1.19-10.81-1.85-10.81m-.264 10.02c.396.263 1.717 5.273 4.096 14.898l4.226 14.24h-.528c-.132 0-.396-.397-.793-1.056-1.717-8.307-3.567-14.768-5.417-19.118-.792-3.824-1.453-5.67-1.85-5.67.133-.79.265-1.846.265-3.296m-7.53 4.087c.13 0 .527-.395 1.32-1.186v1.186c-.925 1.45-1.585 2.505-1.717 2.9h-.53l.53-3.163.396.263m0 3.428c.66-1.054 1.19-1.58 1.32-1.58v.526c0 .923-.13 2.11-.263 3.56-.397 4.087-1.19 6.197-2.247 6.197h-.264c.13-1.187.66-2.24 1.32-3.032 0-.395-.132-.527-.53-.527l-.527.264v-.79c0-.66.66-1.847 1.982-3.56v-.265c0-.395-.265-.527-.793-.527v-.264m-.66 1.056l.528-.264v.264c-.396.79-.793 1.187-1.057 1.187v-1.45l.528.263m8.193 0c1.982 5.142 3.963 11.998 5.945 20.568l-6.21.527h-.264c0-4.613.132-11.47.265-20.83v-.264h.263m-8.72 9.757c0-.66.396-1.187 1.057-1.583l-.264 1.583h-.793m.793.79c0 .792-.132 3.824-.265 8.966 0 .395-.395.922-1.056 1.58l-.528-.262.264-.528v-7.515c0-.396.397-1.055 1.057-2.24h.53m-1.85 11.997c.66-.79 1.056-1.187 1.32-1.187h.264v.264c0 .79-.527 1.45-1.584 1.976v-1.054m-.264 3.955c0-1.45.528-2.24 1.585-2.637v1.32c-.66.922-1.19 1.317-1.32 1.317H10.7m16.515 0c.528 0 1.19-.132 1.85-.264 0 .264-.397.528-1.058.79-.397-.13-.66-.262-.793-.262v-.263m-14.93.264v.528c-.66.79-1.19 1.187-1.32 1.187H10.7v-.923c.66 0 1.057-.264 1.057-.79h.527m7.4 1.45c0-.397.66-.528 1.85-.66 0 .263-.53.527-1.587.923 0-.132-.132-.264-.264-.264m9.91.792c0-.264.13-.395.395-.527h.265l-.264 1.318h-.395v-.79M10.437 77.92c0-.13.66-.66 1.85-1.582v3.428c0 .264-.66.79-1.85 1.45h-.264l.264-1.186v-2.11m19.554.528c0-.264.133-.396.53-.527v1.32h-.53v-.792m1.058 1.846c0 .79-.264 1.318-.793 1.45v-.264l.265-1.186h.528m-20.875 2.768c.132 0 .925-.395 2.114-1.318v1.846c-.66 0-1.19.264-1.85.79h-.264v-1.318m20.347.792c0-.923.264-1.45.792-1.582v.263l-.264 1.32h-.528m.264 1.58c.264-.527.528-.79.793-.79h.264l-.528 1.714h-.528v-.924m-20.61.923c1.188-.924 1.98-1.452 2.113-1.452v2.77c-1.057 8.174-1.585 14.238-1.585 18.062h-.265c0-10.943-.132-17.404-.264-19.38m20.875 1.58c.397-.527.66-.79.793-.79v1.318c0 .396-.13.528-.528.528h-.264l.264-.528-.264-.527m.793 2.11c.397 0 .53.132.53.528v.79l-.265 1.187h-.528v-1.977l.264-.528m.53 3.296c.396 0 .528.132.528.528v1.055c0 .394-.132.526-.53.526h-.263v-1.582l.264-.528m.528 2.9c.396 0 .528.133.528.53v.262c-.264.396-.528.66-.792.66h-.265c0-.396.132-.923.528-1.45m.793 2.24l1.454 12.394-.396.264h-.265c0-2.77-.528-5.67-1.585-8.702l.528-.79v-.792h-.792v-1.32c.396-.394.528-.79.528-1.054h.53m2.245 13.713c0-.527 1.453-1.054 4.492-1.582v.264c0 .66-1.455 1.187-4.23 1.32h-.263m-24.707 1.58c1.982-.13 3.435-.263 4.36-.263v.394l-.264.528c-1.718-.132-2.907-.264-3.832-.264h-.264v-.395M99 17.27c-3.83 19.12-5.68 29.27-5.68 30.458-1.19 11.207-2.246 18.326-3.04 21.36 0 7.12-.66 12.92-2.113 17.403h-.528v-2.24c-1.454-11.34-2.51-22.942-3.04-34.808 0-.396-.66-.923-2.114-1.582l-1.057-1.714h-.265c-1.19 1.186-3.83 2.505-7.927 4.087-.264 0-.66.66-1.32 1.846 0 9.492-.794 20.83-2.38 34.015h-.396c0-.527-.132-1.187-.264-1.846l-3.964-23.997c-1.453-7.12-3.567-19.513-6.21-37.312V20.57l-.264-.396c-.396 0-.66.132-.924.264-.265 0-.66-.528-1.322-1.582-3.963.66-5.945 1.318-5.945 1.977 1.188 3.56 2.377 10.285 3.566 19.91 1.718 10.416 2.643 16.085 2.643 17.272 1.452 5.67 2.64 11.734 3.302 18.458l-.265 1.32c.925 3.56 1.718 8.7 2.38 15.425 1.452 6.987 2.245 13.448 2.245 19.38 0 .265 1.057.792 3.17 1.715 3.04.396 4.625.66 4.89 1.055h.527c.396 0 .528-.132.528-.528v-1.977c.925-2.11 1.32-4.615 1.32-7.515 1.19-5.538 2.115-13.976 3.04-25.447h.528c.66 3.56 1.19 6.46 1.32 8.702 1.19 13.053 1.72 20.7 1.72 22.94 0 1.452.924 2.243 2.64 2.506l7.664-3.032c.397-1.055 3.7-22.282 10.174-63.55 2.774-19.645 4.36-29.4 4.888-29.4v-.265m-3.964-1.056c1.586.79 2.38 1.32 2.38 1.582h-1.058c-1.718-.395-2.51-.923-2.51-1.318v-.264h1.188m-.66 2.11c0 .395-.132.527-.264.527-1.586 9.098-3.303 16.218-5.153 21.36-1.584 11.866-3.17 24.92-4.755 39.158h-.66c.13-4.22.13-6.856.13-8.042 1.19-7.516 1.85-11.735 1.85-12.92 1.586-13.45 3.964-27.03 7.267-40.873l1.586.79m2.246.528l.528.265c-8.455 54.188-13.08 84.38-13.872 90.578-2.378.66-4.36 1.45-5.946 2.373H84.6v-1.846c-1.585-14.898-2.774-27.82-3.7-38.63-.263-11.735-.924-17.536-1.98-17.536-.53.264-.794.527-.794.79v2.638c0 2.505-.132 3.823-.528 3.823-.397 11.998-1.057 19.91-1.85 23.996-.66 9.89-1.32 14.9-1.717 14.9-.66 5.406-1.32 9.756-2.113 12.92H70.86c-1.322 0-2.378-.263-3.303-.79 0-.132.132-.66.264-1.582-2.113-13.58-3.83-27.556-5.152-41.664-5.417-27.687-8.323-43.377-8.852-47.2v-.264c1.19 0 2.378-.132 3.7-.528v1.582c.66 4.615.924 7.12.924 7.78l6.21 34.94 5.417 32.96v1.318c0 .396.132.528.528.528h.53c.395 0 .527-.132.527-.528v-1.054c0-1.846.925-8.307 2.643-19.25l-.264-.527c.133-1.713.265-3.163.265-4.086v-4.747l.925-15.69c0-1.714.66-2.768 1.85-3.032 3.434-1.055 5.416-1.846 5.945-2.373h.264v.264c.66 13.448 1.584 23.468 2.773 29.93 1.057 16.084 1.982 24.126 2.643 24.126h.528c1.454-6.856 2.51-13.184 3.04-18.985l5.152-42.455c2.114-7.25 3.963-14.898 5.417-22.94h1.32M53.29 20.83c.132-.396.925-.66 2.114-.66.396 0 .528.132.528.396v.263c-.793 0-1.32.133-1.585.265 0-.132-.397-.264-1.057-.264m-.925 1.847l.396.264v2.11h-.133c0-1.186-.132-1.977-.528-2.373h.263m.66 2.637v.66h-.264v-.66h.263m.265 2.505l7.53 37.312c2.247 20.963 4.228 36.257 5.946 45.882-.132 0-.264.395-.264 1.318h-.793l-.528-.263c0-.924-.134-4.09-.266-9.494-.925-4.615-1.585-7.12-1.717-7.252-.66-7.91-1.19-12.525-1.85-13.712-.66-10.284-1.718-16.744-2.907-19.25L55.93 47.2c-.925-7.25-1.85-13.448-2.907-18.853v-.528h.265M74.03 51.55c0-.262 2.114-1.45 6.342-3.427.925.132 1.322.396 1.322.79v.265c-.397 0-2.907.923-7.4 2.637h-.263v-.264m.265 1.583l-1.32 17.404v7.78h-.266c-.397-.396-.793-.528-1.058-.528 1.057-10.417 1.586-18.723 1.586-24.92v-.264l1.057.527m4.888 8.44c.397 1.845.53 3.954.53 6.46v2.24c0 .396-.133.528-.53.528 0 .396.264.528.793.528v1.582c-.264 0-.66.132-1.057.528h-.265v-4.88l-.264-1.58c.133-.264.265-2.11.53-5.406h.263m.793 12.13v1.054c-.132 0-.396.132-.793.264l.264.395.53-.13h.13v.922c-.13.527-.527.79-1.452.79v-3.032l1.32-.263m-1.056 4.35c0-.263.395-.66 1.188-1.054l.264 1.582c-.132.527-.396.79-.66.79h-.53l-.263-1.318m-7.532 0c.925.66 1.32 1.055 1.32 1.32v1.977h-.263c-.66-.397-1.057-.66-1.057-.924v-2.374m8.06 2.374c0-.396.132-.528.528-.528h.396l2.907 30.588v1.846h-.794c-.528-10.02-1.585-20.7-3.04-31.906m11.628-.264c.132 0 .396.264.66.923l-.264 1.582v.527h-.396c0-.527-.132-.79-.528-.79l.264-2.242h.264M71.388 81.35c.397.394.793.526 1.057.526v1.846c-.66-.396-1.057-.79-1.057-1.055V81.35m19.158 1.58c0 .396.264.792.66 1.32l-.132 1.318h-.264c-.397-.132-.66-.528-1.057-1.32.132 0 .264-.394.264-1.317h.53m-19.16.792l1.058.79c-.132.265-.264.66-.264 1.32h-.528l-.792-.528.264-1.582h.264m18.1 1.582c.925.66 1.322 1.055 1.322 1.187v1.846h-.264l-1.322-.79.265-2.242m-18.895.79c.925.133 1.322.265 1.322.66v.528l-.265 1.318h-.264c-.528-.264-.793-.527-.793-.79v-1.715m18.1 2.505c0-.264.133-.395.53-.527.924.66 1.32 1.054 1.32 1.318v2.11h-.264c-1.056-.66-1.584-1.318-1.584-2.11v-.79m-18.365.264c.398 0 .794.132 1.322.527l-.264 1.32h-.264c-.53-.264-.793-.528-.793-.79v-1.056m18.366 2.11c.66.658 1.19.922 1.585.922v.264c0 .66-.395 2.637-1.056 5.933h-.528c0-.923-.132-3.296-.264-7.12h.264m-17.836.264l.528.264-.264 1.187v1.582h-.53l-.263-3.033h.53M136.767 18.722c-4.096 0-10.04.527-17.836 1.582h-.264c-.66.395-1.056.66-1.056.923v9.888c1.585 31.248 2.378 49.18 2.378 53.793 0 4.88.792 12.92 2.246 23.864 0 1.187.66 1.846 1.85 1.846.924 1.583 2.113 2.374 3.435 2.374 3.83-1.187 5.812-1.714 5.812-1.846 7.002-.79 10.437-1.45 10.437-1.846v-2.242l.264-2.636c-.397-.396-1.322-1.055-2.907-1.978h-.264c-.793.395-1.586.66-2.246.66-.133 0-2.51.527-7.003 1.58h-1.585v-3.03l.263-1.32c-.132 0-.264-.132-.264-.263l.263-.527c-.132-.263-.264-.66-.264-1.055v-9.23l-1.587-22.15.265-.526c0-.396-.133-.923-.53-1.582.265-.396.53-.66.794-.66l-.793-1.582v-.263c1.452-.264 2.377-.66 2.906-1.055h2.774c1.718-.396 2.775-.528 3.435-.528.265-1.45.66-2.505 1.322-3.032v-.264c-2.51-1.714-3.7-2.637-3.7-2.9-.528 0-2.642.263-6.474.79h-.264v-1.58l-.66-.924V47.07c0-3.43.13-6.99.263-10.813-.132-3.56-.397-6.592-.793-8.833.396 0 .925-.132 1.453-.528 6.474 0 9.645-.395 9.645-1.186.793 0 1.19-1.187 1.19-3.692l-2.51-3.296m-17.837 3.032c5.946-.923 11.495-1.45 16.516-1.45h.264c-.132 1.714-.396 2.77-.793 3.032-6.87.396-10.57.528-11.098.528l-.53.263c.133 1.714.265 2.9.265 3.824v3.43c0 3.69-.132 8.7-.264 15.16.397 5.143.793 8.308 1.058 9.758 1.98.132 2.906.395 2.906.79l5.417-.79h.265c.265 0 .397.132.397.527v1.582c-1.718 0-4.492.132-8.192.264l-.792.397c.396 1.714.528 2.768.528 3.164 0 .66-.264 1.056-.793 1.056.66 5.933 1.19 15.953 1.586 30.06v.528c0 1.978-.133 5.01-.265 8.965 1.19 1.977 1.98 3.032 2.378 3.164h4.36c2.51-.66 4.888-1.187 7.398-1.582l.266 1.318v.264c0 .395-.132.66-.265 1.054-1.98.66-6.34 1.32-13.343 1.978l-2.378-.264c0 .132-.133.264-.265.264v-1.186c-1.19-8.834-1.718-13.58-1.718-14.24-.396-15.03-.924-24.39-1.32-28.083v-3.032c0-.923-.53-11.207-1.586-30.72v-10.02m18.1-.264c.53.264.794.528.794.792v1.582c-.53-.264-.793-.528-.793-.79V21.49m-8.587 3.43c2.907 0 5.55-.133 8.06-.53l.528.792h-1.056c-.66 0-1.585.132-2.774.264l-.53-.264c-.66.396-1.716.528-2.905.528h-2.775v-.528l1.19-.263h.263m-3.303.79c.53.13.793.395.793.66v1.845l.264 3.164c-.924-.528-1.32-.924-1.32-1.056V25.71h.263m-.264 5.67c.66 0 1.19.263 1.586.922v1.055c-.925 0-1.454-.264-1.586-.79v-1.188m0 2.24c1.057 0 1.586.528 1.586 1.583v.79c-.925 0-1.454-.263-1.586-.79V33.62m0 2.637c1.057.132 1.586.396 1.586.66v1.318c-.133 0-.397-.132-.793-.264h-.265l1.057 1.32v2.373c-.66-.132-1.19-.66-1.586-1.582v-3.823m0 5.142c.397.13.925.66 1.586 1.713v1.846h-.265c-.924-.396-1.32-.792-1.32-1.056V41.4m0 3.295c.924 0 1.452 1.32 1.585 4.088h-.53c-.66-.923-1.188-2.242-1.32-3.824.132 0 .264-.133.264-.265m.264 3.824c.265 0 .66.526 1.322 1.58v.792h-.265c-.924-.395-1.32-1.186-1.32-2.373h.263m1.322 2.636v2.77l.528.79v.527h-.264l-1.32-.264v-3.824h1.056m8.455 5.142c.66.66 1.19 1.055 1.586 1.055v1.714h-.265c-1.057-.66-1.585-1.055-1.585-1.187v-1.582h.264m-4.36 3.296l3.04.264v.263c-.926 0-2.38.133-4.36.265-.265 0-.397-.132-.53-.527v-.264h1.85m3.832.527c0-.262.13-.394.527-.526v.527h-.528m-8.193 0c.265 0 .66 1.188 1.057 3.693h-.264c-.528 0-.925-1.187-1.057-3.692h.264m0 3.957c.66.132 1.057.79 1.057 1.714v1.056c-.396 0-.925-.923-1.32-2.77h.263m0 1.978c1.057 2.242 1.586 3.692 1.586 4.35v.265c-1.454-1.188-2.114-2.77-2.114-4.616h.527m0 3.824c.925 1.055 1.454 1.582 1.586 1.582 0 .396-.132.79-.264 1.055l.395.79v1.847c-1.19-1.187-1.718-2.505-1.718-3.956v-1.318m.265 4.483c.924.792 1.32 1.583 1.32 2.506h-.528c-.528-1.32-.792-2.11-.792-2.242v-.263m.528 2.506c.66 1.45 1.057 3.823 1.453 7.25h-.528c-.925-2.24-1.453-3.427-1.453-3.56l.264-1.58v-1.32l-.264-.527.528-.264m0 5.933c0 .262.396 1.185 1.19 2.636v.263h-.397c-.264 0-.66-.396-1.057-1.32V82.8h.264m-.264 2.9c1.32 1.977 1.982 3.296 1.982 4.087 0 2.505.132 5.933.264 10.284-.132 1.978-.264 3.56-.264 4.615-.66 0-1.322-.79-1.982-2.505.132-1.978.264-3.56.264-4.878V90.05c0-.923-.132-2.373-.264-4.35m1.19.527c.527.132.792.395.792.66v.526h-.53c0-.263-.13-.66-.395-1.186h.132m13.212 17.667c.925.132 1.32.396 1.32.79v3.166c-.924-.132-1.32-.396-1.32-.792v-3.164m-1.32 4.615h1.32v.262c-.132 0-1.057.132-2.51.528v-.528l1.19-.263m-1.72.526v.264h-1.32v-.264h1.32m-4.887.528h1.19v.263l-6.87 1.846c-.134 0-.398-.395-.794-1.318l6.474-.79M163.62 19.908c-6.21 0-10.04 1.32-11.626 3.824-2.114 1.978-3.17 5.274-3.17 9.757 0 8.04 1.188 14.106 3.434 18.325 1.32 5.933 6.078 12.92 14.137 21.095 4.624 3.56 7.002 8.702 7.002 15.69 0 3.296-1.32 5.933-4.096 7.78h-.263c0-.133-.132-.397-.264-.792-.396 0-.528.132-.528.527 0 1.714-2.907 2.505-8.588 2.505h-1.454l-.792-.527c-.396 0-.528.132-.528.527l-.528-.263c-.397 0-.925.923-1.586 2.9v.264c0 .265.397 1.45 1.32 3.56-.13 0-.263.133-.263.265v.79c1.454 1.45 3.04 2.242 4.624 2.242h1.85c2.113 0 4.623-1.055 7.53-3.032 3.17-1.32 5.945-4.35 8.456-9.23 1.453-5.274 2.378-8.174 2.906-8.57V80.82c-2.51-6.59-5.68-12.392-9.38-17.402-6.078-6.46-9.117-10.812-9.25-12.92-1.716-1.98-3.17-7.12-4.36-15.427v-1.318c1.19-3.428 2.644-5.142 4.097-5.142 2.642-.395 5.416-.923 8.455-1.582 1.32 0 2.51-1.055 3.435-3.032v-.264c-.66-.66-1.057-1.187-1.057-1.582-.66-1.45-2.114-2.242-4.096-2.242h-5.417m-13.476 14.9c0-1.715.132-3.43.264-5.407 1.982-5.404 5.02-8.04 8.984-8.04h10.702c0 .394-.132 1.317-.528 2.636h-5.68c-1.19 0-2.644.395-4.23 1.054-3.83 1.45-5.68 5.274-5.68 11.603v2.77c0 3.822 1.32 7.91 3.963 12.392 1.188 4.087 4.36 8.702 9.512 13.58 6.87 8.438 10.305 15.294 10.305 20.7 0 6.724-1.32 11.602-3.83 14.635-4.625 3.955-8.457 6.065-11.628 6.46h-1.85c-1.982-.66-3.04-1.186-3.04-1.582.926-1.186 1.322-2.24 1.322-3.032h4.36c1.19 0 3.04-.66 5.68-2.11 3.965-3.955 5.946-7.647 5.946-11.075v-.79c0-3.164-.66-6.592-1.85-10.284 0-.527-4.227-5.274-12.683-14.107-6.738-9.494-10.04-19.25-10.04-29.403m21.667-12.92c0 .263.396.922 1.32 2.11-.66 1.053-1.056 1.58-1.32 1.58-.397 0-.66-.527-1.057-1.58.264 0 .396-.66.528-2.11h.53m-5.682 3.427c.265 0 .66.527 1.322 1.45v.264h-.53c-1.32-.923-2.113-1.45-2.245-1.45h-.264v.395l.925 1.055v.264h-.264c-.925-.66-1.454-1.32-1.718-1.978h2.775m1.85 0c.66.396 1.057.66 1.057.923v.264c-.66 0-1.19-.263-1.32-.922v-.264h.263m-5.417.264c0 .263.397.79 1.057 1.714v.263h-.792c-1.454-.922-2.114-1.45-2.114-1.582l1.85-.395m7.927 0v.263l-.132.397c-.396 0-.528-.132-.528-.396v-.262h.66m-11.494 1.714c.264-.528.53-.79.66-.79 1.19.658 1.85 1.185 1.85 1.317v.263c-.132 0-.396.132-.792.264-.925-.528-1.454-.792-1.718-.792v-.263m-1.057.527c.792.527 1.32.79 1.717.79v.528c-1.454 1.845-2.246 3.428-2.246 4.878v1.846c1.19 8.833 3.7 15.69 7.532 20.83 5.945 6.462 9.512 11.604 10.966 15.164 3.038 4.878 4.492 8.57 4.492 10.81v.528c0 .923-.397 1.714-1.322 2.11 0-3.56-1.98-8.438-5.945-14.767-2.114-3.032-5.417-6.988-10.04-11.734-5.022-8.702-7.532-14.503-7.532-17.536v-5.67c0-3.954.794-6.59 2.38-7.778m10.04 70.537c0-.264.397-.528 1.057-.79l.264.526c-.263.527-.527.79-.79.79-.398 0-.53-.13-.53-.526m-1.057.527c.397 0 .53.132.53.527v.265h-.265c-.53-.264-.793-.527-.793-.79h.528m-9.777.263c.66.395 1.586.527 2.775.527h.794v1.582h-.793c-1.85-.527-2.774-1.186-2.774-1.846v-.262m7.928 0l1.057.79c0 .396-.132.528-.528.528h-.66l-.265-1.318h.397m-3.568.79c0-.263.397-.395 1.322-.527h.264c.925.66 1.32 1.056 1.32 1.32v.264H162.3c-.265 0-.53-.396-.794-1.055m-4.095 1.054c0 .922-.13 1.845-.528 3.032-.396 0-.793-.923-1.32-2.77l.527-1.317 1.32 1.054M206.795 20.963c-2.378.132-3.7.396-3.832.528v-.263c-4.888 1.714-7.266 4.878-7.266 9.23-2.246 16.084-3.303 30.587-3.303 43.508v9.625c0 9.097 1.32 16.217 4.095 21.623 1.717 1.977 2.642 3.164 2.642 3.56h.132l.528-.264c.53.394.793.658.793.79 1.585.264 2.378.66 2.378 1.055l.53-.264h1.452c1.718-.13 4.492-1.186 8.324-3.163 2.51-1.32 4.094-6.197 4.887-14.635 0-1.187-.132-2.9-.264-5.142.528-6.988.793-11.866.793-14.503V62.363c0-1.187-.133-2.77-.53-4.88 0-.262.133-.658.53-1.317l-.265-1.45v-5.67c0-4.746-.527-8.702-1.584-11.866 0-5.142-1.057-9.625-3.04-13.448-2.245-1.846-4.623-2.77-7-2.77m-11.1 56.43c0-5.668.397-11.206 1.058-16.48 0-14.898 1.057-26.632 3.038-35.07.925-2.374 3.17-3.56 6.738-3.56 2.775.395 4.757 1.054 5.682 1.977 2.114 3.295 3.17 6.46 3.17 9.624 1.19 7.252 1.718 13.712 1.718 19.25-.132 2.768-.264 4.35-.264 4.878.396 2.505.528 5.142.528 8.042v3.297c0 3.692-.264 9.757-.792 18.063.132 2.242.264 3.956.264 4.88 0 .658-.397 2.636-1.057 6.195-.662 5.67-3.04 8.44-7.136 8.44-3.963 0-7.134-1.715-9.38-5.143-1.982-1.714-3.17-9.89-3.567-24.392m11.362-53.397c-3.436.395-5.154 1.845-5.154 4.22-.925 0-1.717 6.723-2.642 20.04v4.086c0 3.56 0 7.516-.132 11.867.132 1.185.132 2.24.132 3.295-.264 4.614-.53 9.756-.66 15.557l1.188 8.702c2.246 7.516 4.228 11.34 5.946 11.34h2.378c4.492 0 6.738-5.275 6.738-15.69 0-28.084-.396-42.06-1.32-42.06-1.72-13.58-3.833-20.7-6.475-21.358m-13.874 51.55c.397-19.116 1.19-30.587 2.246-34.542.66-10.416 1.982-15.954 3.7-16.48-.925 1.713-1.32 3.69-1.32 5.668-.926 0-2.115 15.426-3.437 46.41v4.087c0 2.504.133 4.614.53 6.196 0 8.702 1.85 14.9 5.416 18.59l-1.453 1.187c-2.51-1.45-4.492-7.91-5.68-19.513 0-.79.13-2.77.264-5.933 0-1.45-.132-3.428-.264-5.67m10.834-48.914c.793-.923 1.718-1.32 2.775-1.32.66.397 1.19 1.188 1.85 2.374 3.038 11.207 4.624 22.282 4.624 32.962-.134.658-.266 1.58-.266 2.768v.263c0 1.847.132 4.22.53 7.253-.133 5.933-.265 9.888-.265 11.602l.263.527c-.132 0-.264.132-.264.264V91.5c0 3.297-.662 5.802-1.85 7.516-.133-18.195-.397-28.083-.794-29.665.132-2.636.264-5.405.264-8.174L209.7 45.09c-.79-8.042-1.32-12.26-1.584-12.788 0-2.505-.925-4.22-2.907-5.142h-1.19v-.527m-3.435 22.94c0-1.713.132-4.218.53-7.514.66-9.363 1.584-14.11 2.64-14.11h1.19l1.057.66c1.19 0 2.51 10.68 4.096 32.04 0 2.768 0 5.404-.132 7.91.264 8.965.528 18.722.66 29.137 0 .66-.264 1.583-.66 2.505 0 1.055-1.19 1.583-3.7 1.583h-.264c-3.964-4.22-5.945-11.34-5.945-21.36v-3.56c0-.527.132-3.56.528-9.097v-.527c0-1.977-.132-3.295-.264-4.086.133-1.582.265-3.165.265-4.878v-8.702m0 56.034l.793.528-1.32 1.582c-.53-.264-.794-.528-.794-.79v-.265c.66 0 1.057-.396 1.057-1.055h.265m2.378 1.32v.79c-.66.132-1.057.395-1.057.79l-1.32-.263v-.264c0-.13.395-.526 1.056-1.317l1.32.264m.53.527c.528 0 1.057.132 1.717.527-.397.66-.66 1.056-.926 1.056h-.528l-1.32-.264c0-.13.395-.527 1.056-1.318m1.717 1.582c.396-.66.924-1.055 1.85-1.055l.527.265c0 .264-.792.66-2.378 1.055v-.264M264.093 19.25c-1.32 3.032-3.17 7.91-5.416 14.634-3.303 14.108-5.946 22.546-8.06 25.183-2.378-5.406-4.36-10.944-5.813-16.48-3.303-11.208-6.078-18.59-8.324-22.15h-4.888c-.53.262-.793.526-.793.79v1.055c0 3.56.396 7.383 1.056 11.338.132 18.59.53 28.875 1.057 30.852 0 4.747.793 18.46 2.246 41.268v1.582c0 1.45 1.056 2.637 3.17 3.56 2.378-.527 3.832-.923 4.36-1.318 0-.396-.132-.66-.264-1.055-.132-5.67-.264-10.022-.264-13.054v-3.824c-.53-6.328-.793-10.415-.793-12.13 0-4.218-.662-13.975-1.85-29.137.396.132 1.188 2.11 2.113 5.933 1.982 4.087 2.907 6.592 2.907 7.515 2.378 8.174 3.7 12.262 4.095 12.262h.265c.396 0 .528-.264.528-.79l3.832.79h.264c1.453 0 4.096-7.647 7.795-22.81h.13v.132c1.19 36.785 1.983 55.903 2.38 57.22-.133 0-.265.133-.265.265 0 .264.132.66.528 1.055 1.982-.132 3.436-.264 4.36-.264h.265c1.453-1.714 2.246-2.637 2.642-2.637l-2.378-88.073c.132 0 .264-.264.264-.923-.264-.527-.528-.79-.793-.79h-2.774l-.53.263c0-.132-.132-.264-.264-.264h-.793m2.114 1.45l1.19-.264c0 .132.132.263.264.263 1.454 55.11 2.115 84.25 2.115 87.545h-3.303c-1.19-42.06-1.85-65.66-1.85-70.8 0-.66-.264-.924-.793-.924h-.265l-2.246 3.824c-.397.923-1.454 5.67-3.172 14.108-3.17 11.47-5.153 17.272-5.945 17.272h-.53c-1.32 0-1.98-.396-1.98-1.32-3.964-12.524-7.53-23.335-10.834-32.433.395 0 .527-.13.527-.526v-.528c-.396 0-1.32-1.054-2.642-3.032h-.265l-.792.527.264 1.32c0 16.085.396 24.128 1.057 24.128.527 16.48 1.188 31.906 2.113 46.41-.397 0-1.19.263-2.378.79-.925-10.943-1.85-25.446-2.907-43.51 0-14.897-.528-28.74-1.718-41.53.133 0 .265-.132.265-.264.132 0 .264.132.264.264.395 0 1.32-.132 2.773-.264l.53.264 4.36 10.548c2.906 10.68 5.548 18.59 7.794 23.468 1.19 3.56 1.982 5.406 2.246 5.406h.793c1.982-3.428 3.7-7.78 5.152-12.92 2.246-9.362 5.153-18.723 8.588-28.084l1.32.263m-3.962 21.622c0-.395.132-.66.528-.66.397 1.98.53 3.165.53 3.56v.528c-.398 0-.794-1.186-1.058-3.428m-24.442 0c.528 9.757 1.057 16.613 1.585 20.436h-.264l.396 4.88v.526c-.133 0-.53-.396-.926-1.318V65c-.925-12.394-1.32-19.91-1.32-22.414v-.264h.528m1.717 2.11c1.717 4.614 3.434 9.493 5.02 14.37v.265c-.793 0-1.718-2.374-2.907-7.12-1.453-3.428-2.246-5.538-2.246-6.46V44.43h.132m22.46 0c.132 1.054.396 1.582.792 1.582-.132.527-.396.79-.528.79-.925 2.902-1.586 4.352-1.718 4.352 0-1.45.264-2.9.793-4.615l.66.53-.265-1.847v-.79h.265m1.32 3.427l1.586 53.793h-.528c0-1.978-.66-19.25-1.85-51.816 0-.263.132-.923.53-1.977h.263m-17.835 15.162c.396 0 1.057 1.714 2.113 5.142l-.528.264-1.585-5.142v-.264m8.323 10.548c1.982-6.856 3.17-10.284 3.567-10.284-1.19 4.614-2.114 8.042-3.038 10.284h-.53m-14.664-5.142c.396 1.318.66 2.11.66 2.24v.528c-.396 0-.792-.79-1.19-2.505v-.262h.53m8.72.527l.264 1.187v.79c-.396 0-.66-.66-.793-1.977h.53m.263 2.24c.264 0 .528.397.793 1.056v.53c-.265 0-.53-.397-.793-1.056v-.528m-8.72.528c0 .263.264.923.925 1.846 0 .395-.132.527-.53.527 0-.264-.263-.923-.923-2.11v-.263h.527m12.816 1.318c.396 0 .528.132.528.528v1.318c-1.716-.395-2.64-.527-2.773-.527v-1.318h2.246m-12.816 1.055c0 .264.264.66.66 1.187v1.054c-.396 0-.792-.79-1.188-2.24h.527m-.264 2.504c.132 0 .528.396.925 1.32v.79h-.265c0-.264-.264-.923-.924-2.11h.263m.264 2.11c.66 1.186.925 1.977.925 2.24v.265h-.53c-.395-.923-.66-1.582-.66-1.714v-.79h.265m-.264 2.504c.793.66 1.19 1.186 1.19 1.318v1.055h-.265c-.397 0-.793-.66-.925-1.846v-.527m.264 2.637c.793.395 1.19 1.186 1.19 2.373v.132c-.926 0-1.454-.792-1.454-2.506h.264m0 3.032c.132 0 .264.132.66.264.66 0 1.058 3.823 1.058 11.602v8.57c-.66 0-1.19-6.065-1.586-18.326.13 0 .263.13.263.263l.53-.264c-.662-.79-.926-1.45-.926-1.846v-.264m25.5 15.558v4.614h-.265v-4.614h.264m-27.877 6.065c0-.397.66-.53 2.113-.66l1.19.66c0 .394-.662.658-1.983.79-.66-.528-1.057-.79-1.32-.79m28.405 1.845c0-.396 1.057-.66 3.038-.79v.262c0 .396-.132.528-.528.528h-2.51M300.627 18.722c-4.096 0-10.04.527-17.836 1.582h-.264c-.66.395-1.057.66-1.057.923v9.888c1.585 31.248 2.378 49.18 2.378 53.793 0 4.88.792 12.92 2.246 23.864 0 1.187.66 1.846 1.85 1.846.924 1.583 2.113 2.374 3.434 2.374 3.832-1.187 5.814-1.714 5.814-1.846 7.002-.79 10.437-1.45 10.437-1.846v-2.242l.263-2.636c-.396-.396-1.32-1.055-2.906-1.978h-.265c-.792.395-1.585.66-2.246.66-.132 0-2.51.527-7.002 1.58h-1.585v-3.03l.263-1.32c-.132 0-.264-.132-.264-.263l.263-.527c-.132-.263-.264-.66-.264-1.055v-9.23l-1.587-22.15.264-.526c0-.396-.132-.923-.528-1.582.263-.396.527-.66.792-.66l-.793-1.582v-.263c1.452-.264 2.377-.66 2.906-1.055h2.774c1.718-.396 2.775-.528 3.435-.528.264-1.45.66-2.505 1.32-3.032v-.264c-2.51-1.714-3.698-2.637-3.698-2.9-.528 0-2.642.263-6.474.79h-.264v-1.58l-.662-.924V47.07c0-3.43.132-6.99.265-10.813-.133-3.56-.397-6.592-.793-8.833.396 0 .925-.132 1.453-.528 6.474 0 9.645-.395 9.645-1.186.793 0 1.19-1.187 1.19-3.692l-2.51-3.296m-17.837 3.032c5.946-.923 11.495-1.45 16.516-1.45h.264c-.132 1.714-.397 2.77-.793 3.032-6.87.396-10.57.528-11.098.528l-.53.263c.133 1.714.265 2.9.265 3.824v3.43c0 3.69-.132 8.7-.264 15.16.397 5.143.793 8.308 1.057 9.758 1.982.132 2.907.395 2.907.79l5.417-.79h.265c.265 0 .397.132.397.527v1.582c-1.718 0-4.492.132-8.192.264l-.793.397c.397 1.714.53 2.768.53 3.164 0 .66-.265 1.056-.794 1.056.66 5.933 1.19 15.953 1.586 30.06v.528c0 1.978-.133 5.01-.266 8.965 1.19 1.977 1.982 3.032 2.38 3.164h4.36c2.51-.66 4.887-1.187 7.397-1.582l.266 1.318v.264c0 .395-.133.66-.265 1.054-1.98.66-6.34 1.32-13.343 1.978l-2.378-.264c0 .132-.133.264-.265.264v-1.186c-1.19-8.834-1.718-13.58-1.718-14.24-.396-15.03-.925-24.39-1.32-28.083v-3.032c0-.923-.53-11.207-1.586-30.72v-10.02m18.1-.264c.53.264.794.528.794.792v1.582c-.53-.264-.793-.528-.793-.79V21.49m-8.587 3.43c2.907 0 5.55-.133 8.06-.53l.528.792h-1.056c-.66 0-1.585.132-2.774.264l-.53-.264c-.66.396-1.717.528-2.906.528h-2.774v-.528l1.19-.263h.263m-3.303.79c.53.13.793.395.793.66v1.845l.264 3.164c-.925-.528-1.32-.924-1.32-1.056V25.71H289m-.264 5.67c.66 0 1.19.263 1.585.922v1.055c-.923 0-1.452-.264-1.584-.79v-1.188m0 2.24c1.057 0 1.585.528 1.585 1.583v.79c-.923 0-1.452-.263-1.584-.79V33.62m0 2.637c1.057.132 1.585.396 1.585.66v1.318c-.13 0-.395-.132-.79-.264h-.266l1.057 1.32v2.373c-.66-.132-1.188-.66-1.584-1.582v-3.823m0 5.142c.396.13.925.66 1.585 1.713v1.846h-.263c-.925-.396-1.32-.792-1.32-1.056V41.4m0 3.295c.924 0 1.452 1.32 1.584 4.088h-.527c-.66-.923-1.19-2.242-1.32-3.824.13 0 .263-.133.263-.265M289 48.52c.264 0 .66.526 1.32 1.58v.792h-.263c-.925-.395-1.32-1.186-1.32-2.373H289m1.32 2.636v2.77l.53.79v.527h-.264l-1.322-.264v-3.824h1.057m8.457 5.142c.66.66 1.19 1.055 1.586 1.055v1.714h-.265c-1.057-.66-1.585-1.055-1.585-1.187v-1.582h.264m-4.36 3.296l3.04.264v.263c-.926 0-2.38.133-4.36.265-.265 0-.397-.132-.53-.527v-.264h1.85m3.832.527c0-.262.13-.394.527-.526v.527h-.528m-8.193 0c.264 0 .66 1.188 1.057 3.693h-.264c-.53 0-.925-1.187-1.057-3.692h.264m0 3.957c.66.132 1.057.79 1.057 1.714v1.056c-.396 0-.925-.923-1.32-2.77h.263m0 1.978c1.057 2.242 1.586 3.692 1.586 4.35v.265c-1.454-1.188-2.114-2.77-2.114-4.616h.527m0 3.824c.925 1.055 1.453 1.582 1.586 1.582 0 .396-.133.79-.265 1.055l.397.79v1.847c-1.19-1.187-1.718-2.505-1.718-3.956v-1.318m.264 4.483c.926.792 1.323 1.583 1.323 2.506h-.53c-.527-1.32-.792-2.11-.792-2.242v-.263m.53 2.506c.66 1.45 1.057 3.823 1.453 7.25h-.528c-.925-2.24-1.454-3.427-1.454-3.56l.266-1.58v-1.32l-.265-.527.53-.264m0 5.933c0 .262.396 1.185 1.19 2.636v.263h-.397c-.265 0-.66-.396-1.057-1.32V82.8h.264m-.264 2.9c1.32 1.977 1.98 3.296 1.98 4.087 0 2.505.134 5.933.266 10.284-.132 1.978-.265 3.56-.265 4.615-.66 0-1.32-.79-1.98-2.505.13-1.978.263-3.56.263-4.878V90.05c0-.923-.132-2.373-.264-4.35m1.19.527c.527.132.79.395.79.66v.526h-.527c0-.263-.133-.66-.397-1.186h.132m13.212 17.667c.925.132 1.32.396 1.32.79v3.166c-.924-.132-1.32-.396-1.32-.792v-3.164m-1.32 4.615h1.32v.262c-.132 0-1.057.132-2.51.528v-.528l1.19-.263m-1.72.526v.264h-1.32v-.264h1.32m-4.887.528h1.19v.263l-6.872 1.846c-.132 0-.396-.395-.792-1.318l6.474-.79" style="-inkscape-font-specification:Cute Cartoon"/><path d="M360.252 19.908c-6.21 0-10.04 1.32-11.626 3.824-2.114 1.978-3.17 5.274-3.17 9.757 0 8.04 1.188 14.106 3.434 18.325 1.32 5.933 6.077 12.92 14.137 21.095 4.624 3.56 7.002 8.702 7.002 15.69 0 3.296-1.322 5.933-4.097 7.78h-.264c0-.133-.133-.397-.265-.792-.397 0-.53.132-.53.527 0 1.714-2.905 2.505-8.586 2.505h-1.455l-.793-.527c-.396 0-.528.132-.528.527l-.528-.263c-.397 0-.925.923-1.586 2.9v.264c0 .265.396 1.45 1.32 3.56-.13 0-.263.133-.263.265v.79c1.453 1.45 3.04 2.242 4.624 2.242h1.85c2.115 0 4.625-1.055 7.532-3.032 3.17-1.32 5.945-4.35 8.455-9.23 1.454-5.274 2.38-8.174 2.907-8.57V80.82c-2.51-6.59-5.68-12.392-9.38-17.402-6.078-6.46-9.117-10.812-9.25-12.92-1.716-1.98-3.17-7.12-4.36-15.427v-1.318c1.19-3.428 2.644-5.142 4.097-5.142 2.643-.395 5.418-.923 8.457-1.582 1.32 0 2.51-1.055 3.435-3.032v-.264c-.66-.66-1.057-1.187-1.057-1.582-.66-1.45-2.114-2.242-4.096-2.242h-5.418m-13.476 14.9c0-1.715.132-3.43.264-5.407 1.982-5.404 5.02-8.04 8.984-8.04h10.702c0 .394-.132 1.317-.528 2.636h-5.682c-1.19 0-2.642.395-4.227 1.054-3.833 1.45-5.683 5.274-5.683 11.603v2.77c0 3.822 1.322 7.91 3.964 12.392 1.19 4.087 4.36 8.702 9.514 13.58 6.87 8.438 10.305 15.294 10.305 20.7 0 6.724-1.322 11.602-3.833 14.635-4.624 3.955-8.455 6.065-11.626 6.46h-1.85c-1.98-.66-3.038-1.186-3.038-1.582.925-1.186 1.322-2.24 1.322-3.032h4.36c1.19 0 3.038-.66 5.68-2.11 3.964-3.955 5.946-7.647 5.946-11.075v-.79c0-3.164-.66-6.592-1.85-10.284 0-.527-4.227-5.274-12.683-14.107-6.738-9.494-10.04-19.25-10.04-29.403m21.667-12.92c0 .263.396.922 1.32 2.11-.66 1.053-1.056 1.58-1.32 1.58-.397 0-.66-.527-1.057-1.58.264 0 .396-.66.528-2.11h.53m-5.683 3.427c.265 0 .66.527 1.322 1.45v.264h-.53c-1.32-.923-2.113-1.45-2.245-1.45h-.265v.395l.925 1.055v.264h-.265c-.924-.66-1.453-1.32-1.717-1.978h2.774m1.85 0c.66.396 1.057.66 1.057.923v.264c-.662 0-1.19-.263-1.322-.922v-.264h.264m-5.417.264c0 .263.397.79 1.057 1.714v.263h-.793c-1.454-.922-2.115-1.45-2.115-1.582l1.85-.395m7.927 0v.263l-.132.397c-.396 0-.528-.132-.528-.396v-.262h.66m-11.494 1.714c.264-.528.528-.79.66-.79 1.19.658 1.85 1.185 1.85 1.317v.263c-.132 0-.396.132-.793.264-.924-.528-1.453-.792-1.717-.792v-.263m-1.057.527c.794.527 1.322.79 1.72.79v.528c-1.455 1.845-2.248 3.428-2.248 4.878v1.846c1.19 8.833 3.7 15.69 7.53 20.83 5.947 6.462 9.514 11.604 10.967 15.164 3.038 4.878 4.49 8.57 4.49 10.81v.528c0 .923-.395 1.714-1.32 2.11 0-3.56-1.982-8.438-5.945-14.767-2.114-3.032-5.417-6.988-10.04-11.734-5.022-8.702-7.532-14.503-7.532-17.536v-5.67c0-3.954.793-6.59 2.378-7.778m10.042 70.537c0-.264.396-.528 1.057-.79l.263.526c-.264.527-.528.79-.792.79-.396 0-.528-.13-.528-.526m-1.057.527c.396 0 .53.132.53.527v.265h-.266c-.53-.264-.793-.527-.793-.79h.528m-9.777.263c.66.395 1.586.527 2.775.527h.792v1.582h-.792c-1.85-.527-2.775-1.186-2.775-1.846v-.262m7.927 0l1.057.79c0 .396-.132.528-.528.528h-.66l-.265-1.318h.395m-3.567.79c0-.263.397-.395 1.32-.527h.266c.924.66 1.32 1.056 1.32 1.32v.264h-2.113c-.263 0-.528-.396-.792-1.055m-4.096 1.054c0 .922-.132 1.845-.528 3.032-.396 0-.793-.923-1.32-2.77l.527-1.317 1.322 1.054M405.54 19.25h.53m6.605-.265h.264m.263 6.197c-1.453.923-2.246 1.846-2.246 2.77v1.845c-.528 4.087-1.453 12.92-2.642 26.5h-.264c0-.13-3.567-6.328-10.833-18.326-3.567-4.218-5.946-6.987-7.003-8.437-.132 0-1.056.396-3.038 1.32l-.53-.265c-.395.132-1.056 1.318-1.98 3.823 2.245 2.243 3.7 4.748 4.624 7.517 3.038 3.69 5.417 6.987 7.134 10.02 3.567 4.878 6.606 9.23 9.116 13.316v.528c-.924 3.824-1.453 8.57-1.85 14.24l-2.377 19.777c-.793 5.274-1.19 9.23-1.19 11.866v.264l.265.527c.396 0 .528-.132.528-.527.264 0 .793.132 1.454.527l.528-.263 3.7.792h.13c.398 0 1.058-2.77 1.85-8.307.662-7.78 1.72-16.876 2.908-27.028l4.36-27.292c1.453-14.37 2.378-22.282 2.774-23.732 0-.923-1.85-1.45-5.417-1.45m.53 1.186c1.452 0 2.773.13 3.698.526l-3.434 27.556c-2.378 14.635-3.83 24.128-4.36 28.61-1.453 14.9-2.642 24.524-3.567 28.61l-3.436-.79c1.057-9.097 2.246-17.272 3.7-24.523.66-3.297 1.452-10.417 2.51-21.624l-7.928-11.998c-8.852-12.79-13.212-19.777-13.212-20.964 1.19-.395 1.982-.66 2.378-.66.793 1.188 3.04 4.09 6.87 8.44 7.003 12.393 11.363 19.38 12.948 21.095.53 0 .793-.66.793-1.847 0-.923 1.057-11.603 3.04-32.17v-.264m-1.322.79c0 1.582-.528 6.856-1.453 15.953h-.528l1.584-15.953h.397m-25.763 5.406c0 .66 1.32 2.9 3.832 6.987 7.265 10.284 10.833 15.822 10.833 16.745l-.133.527-.528-.263c-4.228-6.725-7.135-10.68-8.588-12.13-3.04-5.67-5.153-8.966-6.474-10.02l.53-1.846h.527m24.046 11.602v.79h-.264v-.79h.263m-.264 2.637v1.45h-.53v-.263l.265-1.187h.264m0 2.505c-.133 1.055-.398 1.582-.794 1.582v-.264l.264-1.318h.53m-.53 2.9v1.055h-.264V52.21h.264m0 2.242v.79h-.528v-.79h.528m-.792 2.373c0-.395.132-.527.528-.527h.264v.264c0 .395-.132.527-.528.527h-.264v-.265m-7.53.79c0-.394.13-.526.527-.526s.53.13.53.526v.264c-.133 0-.398.132-.794.264h-.263v-.528m2.114 1.055v.66h-.528c-.264 0-.396-.132-.528-.527v-.132h1.057m.53 1.45c.396 0 .528.133.528.53v.526h-.53c-.263 0-.395-.132-.527-.527v-.53h.53m1.585 1.847v.528h-1.057v-.528h1.057m.264 1.32c.395.13.66.526.924 1.185h-.66c-.265 0-.53-.263-.794-.923l.53-.264m-.265 6.196c.396-2.768.792-4.22 1.453-4.22 0 1.98-.132 3.297-.264 4.22h-1.19m1.19.66l-.265 1.318-.397-.264-.793.528h-.264v-1.32c.925 0 1.32-.13 1.32-.526l.398.264m-1.982 3.164c.132-.396.66-.923 1.717-1.32v3.166c-.133 0-.265-.132-.66-.264-.662.132-.926.264-1.058.264v-1.846m-.264 4.878c.132-1.977.66-2.9 1.85-2.9h.13c-.13.395-.263 1.318-.395 2.9-.132 0-.264-.132-.264-.263l-1.322.264m0 .79c.528 0 .925-.13 1.32-.262l.265.527v.526c0 .264-.528.66-1.585 1.055v-1.845m-.53 3.824c0-1.056.662-1.583 1.85-1.583 0 .923-.395 1.45-1.32 1.845h-.53V82.8m0 1.58c.265.133.662.265 1.058.265h.264c-1.19 5.405-2.246 11.734-3.17 18.986-.397 4.88-.793 7.252-1.19 7.252h-.264l3.04-25.71c0-.132.13-.395.263-.79M429.696 21.886c-1.057 0-1.586 2.11-1.586 6.197v7.515c.66 10.943 1.19 34.016 1.718 68.955v2.374l-.132 1.318c.396 1.45.792 2.24 1.19 2.24 2.905-.526 4.36-.92 4.36-1.317v-3.296c0-.264-.133-.396-.398-.527.265-1.187.397-1.978.397-2.374v-3.56c0-15.16-.397-25.972-1.19-32.433v-3.823c0-1.582.133-3.824.265-6.724-.132-.264-.397-1.187-.53-2.637h.53l.264 1.846c1.982 6.723 3.04 10.942 3.04 12.92 1.584 4.22 2.905 8.965 3.83 14.107 1.057 5.406 3.17 13.58 6.474 24.26 0 1.582 1.19 3.164 3.435 4.878 1.718-.66 3.17-1.055 4.625-1.055l1.056-3.032v-.264c0-.396-.132-.527-.528-.527.66-3.824 1.19-8.834 1.718-14.767v-3.824c0-5.537.132-13.712.528-24.655-.396-17.666-.528-27.818-.528-30.455.528-6.33.924-9.493 1.32-9.493v-.528c-.263-.527-.528-.79-.792-.79h-2.51c-.925 0-2.246-.132-3.964-.264l-1.19 1.582V50.76c0 1.714.133 4.483.265 8.175-.132 0-.264.132-.264.263.13.923.263 1.714.263 2.374v22.94h-.264c-8.59-30.324-14.402-50.892-17.31-61.835 0-.264-1.188-.66-3.698-1.055l-.396.264m.132 1.318c1.453.132 2.378.396 2.642.528l17.308 61.045c2.378 9.097 3.7 13.58 4.096 13.58h.264c.66 0 1.057-4.747 1.057-14.372l-1.32-39.685c.527-2.505.79-9.097.79-19.777v-.527h3.04c0 1.054-.264 3.56-.66 7.383v19.117c.264 4.087.396 6.46.396 6.987v5.67c0 .923 0 2.11-.13 3.56.13.263.13.66.13 1.318-.263 2.505-.396 4.22-.396 5.142v7.91c0 1.188-.132 2.506-.264 3.956.132.66.264 1.32.264 2.242 0 4.878-.66 11.47-1.85 19.645-1.453.13-2.377.263-2.642.263-.66 0-1.453-2.768-2.51-8.306-2.907-8.834-4.888-15.294-5.945-19.25l.264-1.845-.528-.265c-2.51-11.075-4.227-18.063-5.152-20.832-2.51-11.47-4.228-17.535-4.89-18.326l.266-1.055c0-.396-.397-.79-1.057-1.187h-.266c-.528.132-.792.79-.792 1.978v3.692c.528 10.943.792 17.14.792 18.458v6.197c.66 8.306 1.057 14.635 1.057 19.118v18.985c0 .396.133.528.53.528l-.264.528c-.133 0-.265-.132-.265-.263l-2.64.527c0-.527.13-.923.263-1.32-.925-27.027-1.32-47.86-1.32-62.493-.265-2.77-.397-4.484-.397-5.407V25.05l.132-1.846m22.46 1.055c0-.396.132-.528.53-.528h.263l.265 1.318v.923c0 6.197-.132 11.603-.528 16.086-.265 0-.397-.133-.53-.53V24.26m-18.496 17.8c.398 1.713.794 3.954 1.455 6.59-.397.66-.66 1.056-.925 1.056h-.264c-.397 0-.53-.132-.53-.528v-5.405l-.263-1.714h.528m1.455 7.91c.396 0 .66.658.792 2.11 0 .394-.132.526-.528.526h-.265c-.397 0-.53-.527-.66-1.582l.66-1.055m.264 3.823c0-.264.395-.528 1.056-.66l.264 1.187v.264c-.132 0-.396.132-.793.264-.132 0-.396-.396-.528-1.055m17.307-.264c0 .526.132 1.186.264 1.845-.13 1.978-.263 4.615-.263 8.043h-.265v-9.89h.265m-15.723 2.11c0 .792.132 1.32.265 1.583-.266 0-.398.133-.53.528-.528-.132-.793-.923-.793-2.11h1.057m-.528 2.374c.793.132 1.453.66 1.85 1.714l-.793 1.055c-.397 0-.793-.79-1.057-2.504v-.264m1.32 3.823c0-.263.133-.395.53-.527h.264c.396 1.714.528 2.637.528 2.9v.132c0 .396-.132.528-.528.528l-.793-3.033m1.057 5.142c0-.923.264-1.45.793-1.582 0 .132.132 1.32.528 3.428 0 .264-.132.66-.528 1.055-.53 0-.793-.923-.793-2.9m13.873.263c.528 1.583.792 7.384.792 17.273v8.174c-.53 0-.793-.923-.793-2.768 0-3.56-.132-10.945-.265-22.152v-.527h.265m-12.552 3.033c.397 0 .53.66.66 2.11h-.66c0-.132-.132-.923-.528-2.11h.528m1.19 3.165l.264 1.846v.395c-.398 0-.662-.792-.794-2.242h.528m.265 3.032c.395 0 .66 1.055.79 3.165v.263h-.527c0-.395-.132-1.45-.264-2.9v-.528m.79 4.22c.398 0 .926 1.318 1.587 3.823 3.038 8.833 5.285 16.744 6.738 23.732-.132 0-.264.132-.264.396h-.528c-2.246-6.196-3.435-10.02-3.435-11.47-1.453-4.615-2.907-10.152-4.096-16.35v-.13m-11.36 27.028c0-.528.924-.79 2.906-.79v1.45c-.133 0-1.057.13-2.643.526l-.264-1.186m20.478 2.24c0-.922.264-1.45.66-1.58h2.643v1.054h-.792c-.397 0-1.19.263-2.378.79 0-.13 0-.263-.132-.263M501.567 19.38c-1.453.528-5.813 1.715-13.08 3.43-4.096.263-8.456 1.054-13.212 2.24-4.888.923-7.4 1.846-7.4 2.637v2.505l.265.528c.397 0 .66-.132.925-.264l1.586 1.846c4.757-1.45 8.324-2.11 10.57-2.11h.793c.396 0 .53.132.53.528v1.054c0 1.715.13 9.89.527 24.656v11.075c-1.057 16.744-1.585 27.424-1.585 32.302l.528 10.284c2.114 1.32 3.435 2.374 3.832 3.033 3.567-.66 5.416-1.318 5.416-2.11v-.658c0-3.824-.13-7.252-.527-10.548.132-6.724.264-11.866.264-15.558l-1.19-27.82c.398-6.593.53-11.075.53-13.317v-.527c0-3.164-.132-7.515-.265-13.185v-.262c3.303-.396 4.89-.528 4.89-.66 6.208 0 10.436-.66 12.815-2.11l-.265-1.845V22.81c-2.51-1.98-4.492-3.165-5.945-3.43M468.8 28.216c2.776-1.187 7.003-2.374 12.95-3.428 5.812-.66 12.418-2.11 19.817-4.088 1.19.66 1.85 1.845 1.85 3.296-2.51.66-3.832.923-3.832 1.054-8.852.396-13.212 1.187-13.212 2.374v4.087c.396 9.098.53 14.108.53 15.163v3.692c0 5.142-.134 8.833-.266 11.207.132 2.373.265 6.196.265 11.338v2.11c0 3.823-.133 8.306-.265 13.712.925 6.197 1.32 11.34 1.32 15.426v3.296c-.79 0-2.112.527-3.83 1.582-.66 0-1.057-1.582-1.057-4.878 0-2.77.132-9.625.264-20.568.397-1.187.793-6.46 1.32-16.085-.13-.923-.263-1.714-.263-2.505V54.716c0-1.583-.13-9.098-.527-22.678v-1.582l.264-1.318c-.264-1.45-.66-2.374-1.057-2.77-1.32.396-1.982.792-2.114 1.056-3.04.395-6.738.923-11.098 1.714-.528-.132-.925-.396-1.057-.923m35.674-5.933c1.453.527 2.113.922 2.113 1.186v1.846h-.264c-1.19-.66-1.85-1.187-1.85-1.582v-1.45m-12.42 4.614c2.38 0 6.21-.395 11.364-1.318h.528l1.32.263v.53l-14.796 1.58h-.398v-.526l.265-.528c.132 0 .132.132.132.264l1.32-.264h.264m-4.096.79c0-.394.133-.526.53-.526h.263v1.055h-.792v-.528m-5.945.528h.264v.66c-.396 0-1.19.13-2.114.263v-.528l1.85-.395m-11.362 1.977c.66 0 2.775-.395 6.21-1.318l.265.527c-.397 0-2.246.53-5.682 1.583-.396-.13-.66-.263-.792-.263v-.528m17.308-1.318l.793.527c.133 6.462.265 11.472.265 14.768v2.77l-.264 2.636c-.395 0-.527-.132-.527-.528v-1.318c0-4.747-.132-11.075-.53-18.854h.265m.53 31.247c.395 4.352.527 7.12.527 8.176v.263h-.792v-8.44h.264m-.264 11.604c.66.263 1.057.79 1.057 1.714v.79h-.53l-.527-2.24v-.264m.528 3.56c.398.79.662 2.11.794 3.823h-.264c-.265 0-.66-.527-1.057-1.45v-2.373h.528m-.263 4.35c.925.396 1.32 1.32 1.32 2.638v.527c-.66-.528-1.188-.792-1.584-.792v-2.373h.264m-.264 3.164c1.057.658 1.585 1.054 1.585 1.185v1.055h-.264c-.53-.66-1.057-1.055-1.586-1.055.133-.263.265-.66.265-1.186m-.265 2.504c.397 0 1.057.395 1.85 1.055-.132 4.35-.264 7.514-.264 9.492v1.582h-.53c-.66-6.46-1.056-10.416-1.056-11.866v-.264m1.85 20.172v1.978h-.264v-1.978h.264m-4.888 4.615c1.32-.658 2.378-1.054 3.038-1.054.66.396 1.19 1.055 1.586 1.846l-2.907.66c-.925-.66-1.453-.924-1.717-.924v-.527M535.237 20.304c0 11.998-.264 24.655-.793 37.84-1.057-.396-3.83-.923-8.323-1.846.133-9.36.265-16.745.265-22.414V24.92c0-3.034-1.19-4.484-3.567-4.484h-2.38c-.923 1.186-1.584 1.846-1.716 1.846.132 1.977.264 3.164.396 3.428-.132 0-.264 0-.264.13v1.056c0 1.45.132 3.164.264 5.142-.396 2.11-.66 3.956-.66 5.67V47.86c0 5.142-.133 11.866-.265 20.04.397 1.978.793 17.668.925 46.806 0 .527.397.922 1.057 1.318 1.85-.132 4.096-1.055 6.738-3.032-.528 0-.925-4.615-1.057-13.976l.53-5.67c-.133-9.624-.662-17.535-1.322-23.468.132-.132.396-1.846.528-4.878-.132-.923-.264-1.846-.264-3.033v-.264c4.624.132 7.663.396 8.852.792.396 20.436.793 33.752 1.19 39.685v11.075c0 2.77.13 5.142.527 7.12-.132 0-.264.132-.264.264.264.526.53.79.793.79h2.907c1.85-.923 2.774-1.846 2.774-2.77 0-.79-.132-1.318-.264-1.58.132-.924.264-1.715.264-2.374V99.543l-.264-1.318c.132 0 .264-.132.264-.264-.132-1.58-.396-2.636-.528-3.03l.263-.53c0-3.295.132-6.723.264-10.546-.132-4.35-.264-7.78-.264-10.284 0-.923.132-2.374.528-4.615-.66 0-1.056-3.164-1.056-9.36 0-1.45.132-3.43.53-6.198 0-.923-.133-2.505-.265-4.614 0-4.088.263-12.262.79-24.656v-1.845c0-.923-.527-1.846-1.716-2.505h-4.757l-.66.527m4.096.66c0 6.59-.397 20.567-1.322 42.058v4.615c.398 3.823.53 5.933.53 6.196v4.35c0 7.516-.132 12-.53 13.186 0 .13.133.394.266.658-.133 10.68-.265 16.876-.265 18.59 0 .923.133 4.088.266 9.493h-1.322c0-.13.133-.262.265-.262-.398-1.187-.53-2.374-.53-3.56V102.18l-.264-.527h.264c-.396-3.824-.925-16.35-1.453-37.576l.132-2.637c-3.04-.528-5.946-.79-8.985-.79-.397 0-.925-.133-1.586-.53-.265.133-.66.265-1.19.265-1.057 0-1.585 2.373-1.585 7.252.396 6.724.66 18.59.793 35.73-.397 3.56-.53 6.328-.53 8.306l.265 2.505-1.85.528h-.264v-9.493c0-1.055-.133-6.065-.53-15.163V79.503c0-1.055-.13-6.065-.528-15.163v-9.097l.265-1.318c-.132 0-.265-.132-.265-.264.133 0 .265-.13.265-.263v-.132l-.265-.527c.133 0 .265-.132.265-.264v-.263l-.265-.527h.265c0-.395-.132-.79-.265-1.055l.265-.527c0-.13-.132-.394-.265-.79h.265c0-.132-.132-.396-.265-.79l.265-.528-.265-1.45v-5.406c0-2.11.265-5.538.793-10.284v-3.956c0-1.055-.132-2.77-.264-5.142h3.172c0 .132-.132.396-.264.79-.133 10.68-.265 18.987-.265 24.788v11.34c0 .526 3.17.79 9.513.922h.793c.395 0 .924-.132 1.584-.527 0 .395.132.527.53.527.79 0 1.188-12.13 1.188-36.52 0-.133.132-.924.264-2.11h2.907m1.453.263c0 .527.132.79.528.79-.396 11.076-.66 19.12-.924 24.26.132 3.165.264 5.143.264 5.934-.397 4.483-.53 6.988-.53 7.648 0 2.505.266 5.933.662 10.02v2.9c0 .396 0 .66-.132 1.055.132.264.132.66.132 1.055v5.142c0 .923-.264 1.45-.925 1.714h-.263c.132-1.978.264-3.428.264-4.35V75.15c0-.923-.263-3.956-.792-8.834 0-.264.132-.923.53-1.978l-.265-1.582c0-1.45.264-10.284.792-26.5l.265-1.32c-.133 0-.265-.13-.265-.263.132-.395.265-.66.265-1.055V21.227h.396m-16.515 1.055c.53.13.794.66.794 1.582v4.878c0 1.582.132 3.032.264 4.35-.132.66-.264 1.98-.264 3.824v1.846c-.66.923-1.057 1.32-1.19 1.32h-.264v-3.825c0-.527.132-2.9.53-6.988V22.28h.13m-.66 18.854c0-.264.53-.66 1.454-1.32 0 .66-.53 1.188-1.454 1.847v-.527m0 1.45c.66-.923 1.19-1.45 1.454-1.45v.527c-.53.923-.925 1.45-1.19 1.45h-.264v-.527m0 1.582c0-.132.53-.66 1.454-1.318v1.054c-.66.923-1.057 1.32-1.19 1.32h-.264v-1.056m0 2.11c0-.264.53-.66 1.454-1.32v1.32c0 .13-.397.527-1.19 1.054h-.264v-1.054m0 2.768c0-.79.397-1.318 1.19-1.714h.264v1.187c-.397.79-.793 1.186-1.19 1.317h-.264v-.79m0 2.9c0-.923.53-1.714 1.454-2.373 0 1.186-.397 1.977-1.19 2.373h-.264m0 1.055c.66-.923 1.057-1.32 1.19-1.32v.792c-.66.79-1.058 1.187-1.19 1.187v-.658m0 2.24c0-.658.53-1.45 1.454-2.24 0 .923-.53 1.582-1.454 2.24m0 1.32c0-.66.397-1.32 1.19-1.846v.79c-.397.66-.66 1.056-.925 1.056h-.265m1.454 1.054c.132 0 .396-.132.792-.263 1.718.263 2.643.66 2.643 1.054-1.72-.13-2.776-.263-3.172-.263h-.264v-.528m-.793 4.087c0 3.033 0 6.065-.13 9.23l.924 14.24-.265 1.186c.396 3.56.528 5.536.528 5.932l-.793 6.196c.132 5.01.396 9.625.793 13.976-.793.66-1.32 1.055-1.453 1.055l-.265-.528V109.3c0-2.242.132-4.22.53-5.67-.133 0-.265-.13-.265-.263h.264c0-3.165-.265-14.37-.794-33.49l.264-.922c-.132 0-.264-.264-.264-.79 0-1.45.132-3.693.264-6.462h.66m15.327 21.887c0-.923.396-1.45 1.19-1.846l.263 1.318c0 1.846-.528 3.033-1.453 3.56V85.7c.396-.923.793-1.32 1.057-1.32l-.264-.526-.793.527v-.79m1.19 2.77v2.372l-.133 1.846c.132 0 .132.132.132.263 0 .133-.53.53-1.453 1.188v-.66c0-.658.396-1.45 1.057-2.11v-.262h-.793V87.94c.528-.658.793-1.186.793-1.58h.396m-1.453 7.514c0-.923.396-1.714 1.32-2.11v1.846c-.396.66-.792 1.055-1.056 1.055h-.264v-.79m0 2.9c0-.923.396-1.714 1.32-2.11v1.846c-.396 0-.792.265-1.32.924v-.66m0 2.77c0-.924.528-1.847 1.453-2.77v1.45c-.925 1.45-1.32 2.11-1.453 2.11v-.79m1.453.263v1.318c0 .79-.53 1.714-1.453 2.77v-1.187c0-.396.396-1.32 1.057-2.9h.396m-1.453 6.987c0-1.187.528-2.505 1.453-3.956h.264c0 1.977-.528 3.56-1.717 4.746v-.79m0 2.768c0-.923.528-1.846 1.717-3.033v1.056c-.264 0-.793.66-1.717 1.978m0 .79c.396 0 .924-.66 1.717-2.11-.132 6.462-.264 9.89-.264 10.417 0 .396-.396.792-1.19 1.188-.13-1.978-.263-3.428-.263-4.35v-5.143M577.51 18.722c-4.095 0-10.04.527-17.835 1.582h-.264c-.66.395-1.056.66-1.056.923v9.888c1.585 31.248 2.378 49.18 2.378 53.793 0 4.88.793 12.92 2.246 23.864 0 1.187.66 1.846 1.85 1.846.924 1.583 2.114 2.374 3.435 2.374 3.83-1.187 5.813-1.714 5.813-1.846 7.002-.79 10.438-1.45 10.438-1.846v-2.242l.264-2.636c-.397-.396-1.32-1.055-2.907-1.978h-.263c-.793.395-1.586.66-2.246.66-.13 0-2.51.527-7.002 1.58h-1.585v-3.03l.264-1.32c-.132 0-.264-.132-.264-.263l.264-.527c-.132-.263-.264-.66-.264-1.055v-9.23l-1.585-22.15.264-.526c0-.396-.132-.923-.53-1.582.266-.396.53-.66.794-.66l-.793-1.582v-.263c1.454-.264 2.38-.66 2.907-1.055h2.775c1.717-.396 2.774-.528 3.435-.528.264-1.45.66-2.505 1.32-3.032v-.264c-2.51-1.714-3.7-2.637-3.7-2.9-.527 0-2.64.263-6.472.79h-.265v-1.58l-.66-.924V47.07c0-3.43.132-6.99.264-10.813-.132-3.56-.396-6.592-.793-8.833.397 0 .925-.132 1.454-.528 6.473 0 9.644-.395 9.644-1.186.793 0 1.19-1.187 1.19-3.692l-2.51-3.296m-17.837 3.032c5.945-.923 11.494-1.45 16.515-1.45h.264c-.132 1.714-.396 2.77-.793 3.032-6.87.396-10.568.528-11.097.528l-.528.263c.132 1.714.264 2.9.264 3.824v3.43c0 3.69-.133 8.7-.265 15.16.396 5.143.793 8.308 1.057 9.758 1.982.132 2.907.395 2.907.79l5.415-.79h.265c.264 0 .396.132.396.527v1.582c-1.718 0-4.492.132-8.19.264l-.794.397c.396 1.714.528 2.768.528 3.164 0 .66-.264 1.056-.792 1.056.66 5.933 1.19 15.953 1.585 30.06v.528c0 1.978-.132 5.01-.264 8.965 1.188 1.977 1.98 3.032 2.377 3.164h4.36c2.51-.66 4.888-1.187 7.4-1.582l.263 1.318v.264c0 .395-.132.66-.264 1.054-1.982.66-6.342 1.32-13.344 1.978l-2.38-.264c0 .132-.13.264-.263.264v-1.186c-1.19-8.834-1.718-13.58-1.718-14.24-.397-15.03-.925-24.39-1.322-28.083v-3.032c0-.923-.528-11.207-1.585-30.72v-10.02m18.1-.264c.53.264.793.528.793.792v1.582c-.528-.264-.793-.528-.793-.79V21.49m-8.587 3.43c2.906 0 5.55-.133 8.06-.53l.527.792h-1.057c-.66 0-1.585.132-2.774.264l-.53-.264c-.66.396-1.716.528-2.905.528h-2.776v-.528l1.19-.263h.264m-3.303.79c.528.13.792.395.792.66v1.845l.265 3.164c-.925-.528-1.322-.924-1.322-1.056V25.71h.265m-.265 5.67c.66 0 1.19.263 1.586.922v1.055c-.925 0-1.454-.264-1.586-.79v-1.188m0 2.24c1.057 0 1.586.528 1.586 1.583v.79c-.925 0-1.454-.263-1.586-.79V33.62m0 2.637c1.057.132 1.586.396 1.586.66v1.318c-.132 0-.397-.132-.793-.264h-.264l1.056 1.32v2.373c-.66-.132-1.19-.66-1.586-1.582v-3.823m0 5.142c.397.13.925.66 1.586 1.713v1.846h-.264c-.925-.396-1.322-.792-1.322-1.056V41.4m0 3.295c.925 0 1.454 1.32 1.586 4.088h-.53c-.66-.923-1.188-2.242-1.32-3.824.132 0 .264-.133.264-.265m.265 3.824c.264 0 .66.526 1.32 1.58v.792h-.263c-.925-.395-1.322-1.186-1.322-2.373h.265m1.32 2.636v2.77l.53.79v.527h-.265l-1.32-.264v-3.824h1.056m8.455 5.142c.662.66 1.19 1.055 1.587 1.055v1.714h-.264c-1.057-.66-1.586-1.055-1.586-1.187v-1.582h.264m-4.358 3.296l3.038.264v.263c-.925 0-2.378.133-4.36.265-.264 0-.396-.132-.528-.527v-.264h1.85m3.83.527c0-.262.133-.394.53-.526v.527h-.53m-8.19 0c.264 0 .66 1.188 1.057 3.693h-.266c-.528 0-.925-1.187-1.057-3.692h.265m0 3.957c.66.132 1.057.79 1.057 1.714v1.056c-.398 0-.926-.923-1.323-2.77h.265m0 1.978c1.057 2.242 1.585 3.692 1.585 4.35v.265c-1.453-1.188-2.114-2.77-2.114-4.616h.53m0 3.824c.923 1.055 1.452 1.582 1.584 1.582 0 .396-.132.79-.264 1.055l.396.79v1.847c-1.19-1.187-1.718-2.505-1.718-3.956v-1.318m.264 4.483c.925.792 1.32 1.583 1.32 2.506H568c-.53-1.32-.794-2.11-.794-2.242v-.263m.528 2.506c.66 1.45 1.057 3.823 1.454 7.25h-.53c-.924-2.24-1.452-3.427-1.452-3.56l.264-1.58v-1.32l-.264-.527.528-.264m0 5.933c0 .262.397 1.185 1.19 2.636v.263h-.397c-.264 0-.66-.396-1.057-1.32V82.8h.264m-.264 2.9c1.32 1.977 1.982 3.296 1.982 4.087 0 2.505.132 5.933.264 10.284-.132 1.978-.264 3.56-.264 4.615-.66 0-1.32-.79-1.982-2.505.132-1.978.264-3.56.264-4.878V90.05c0-.923-.132-2.373-.264-4.35m1.19.527c.528.132.792.395.792.66v.526h-.53c0-.263-.13-.66-.395-1.186h.132m13.21 17.667c.926.132 1.322.396 1.322.79v3.166c-.925-.132-1.32-.396-1.32-.792v-3.164m-1.322 4.615h1.32v.262c-.13 0-1.056.132-2.51.528v-.528l1.19-.263m-1.718.526v.264h-1.32v-.264h1.32m-4.888.528h1.19v.263l-6.87 1.846c-.133 0-.398-.395-.794-1.318l6.474-.79M622.333 19.38c-1.453.528-5.813 1.715-13.08 3.43-4.096.263-8.456 1.054-13.212 2.24-4.887.923-7.398 1.846-7.398 2.637v2.505l.265.528c.396 0 .66-.132.924-.264l1.587 1.846c4.756-1.45 8.323-2.11 10.57-2.11h.792c.395 0 .528.132.528.528v1.054c0 1.715.132 9.89.528 24.656v11.075c-1.057 16.744-1.585 27.424-1.585 32.302l.53 10.284c2.113 1.32 3.434 2.374 3.83 3.033 3.568-.66 5.418-1.318 5.418-2.11v-.658c0-3.824-.133-7.252-.53-10.548.133-6.724.265-11.866.265-15.558l-1.19-27.82c.398-6.593.53-11.075.53-13.317v-.527c0-3.164-.132-7.515-.265-13.185v-.262c3.303-.396 4.89-.528 4.89-.66 6.21 0 10.436-.66 12.815-2.11l-.265-1.845V22.81c-2.51-1.98-4.492-3.165-5.945-3.43m-32.766 8.835c2.775-1.187 7.002-2.374 12.948-3.428 5.813-.66 12.42-2.11 19.818-4.088 1.19.66 1.85 1.845 1.85 3.296-2.51.66-3.832.923-3.832 1.054-8.85.396-13.21 1.187-13.21 2.374v4.087c.395 9.098.528 14.108.528 15.163v3.692c0 5.142-.133 8.833-.265 11.207.132 2.373.265 6.196.265 11.338v2.11c0 3.823-.133 8.306-.265 13.712.925 6.197 1.322 11.34 1.322 15.426v3.296c-.793 0-2.114.527-3.832 1.582-.66 0-1.057-1.582-1.057-4.878 0-2.77.132-9.625.264-20.568.397-1.187.793-6.46 1.322-16.085-.133-.923-.265-1.714-.265-2.505V54.716c0-1.583-.132-9.098-.528-22.678v-1.582l.263-1.318c-.264-1.45-.66-2.374-1.057-2.77-1.32.396-1.982.792-2.114 1.056-3.04.395-6.738.923-11.098 1.714-.528-.132-.925-.396-1.057-.923m35.673-5.933c1.453.527 2.113.922 2.113 1.186v1.846h-.264c-1.19-.66-1.85-1.187-1.85-1.582v-1.45m-12.42 4.614c2.378 0 6.21-.395 11.363-1.318h.528l1.322.263v.53l-14.797 1.58h-.397v-.526l.265-.528c.132 0 .132.132.132.264l1.32-.264h.265m-4.095.79c0-.394.132-.526.528-.526h.264v1.055h-.792v-.528m-5.946.528h.263v.66c-.396 0-1.19.13-2.114.263v-.528l1.85-.395m-11.363 1.977c.66 0 2.774-.395 6.21-1.318l.264.527c-.396 0-2.245.53-5.68 1.583-.397-.13-.66-.263-.793-.263v-.528m17.308-1.318l.792.527c.132 6.462.264 11.472.264 14.768v2.77l-.263 2.636c-.396 0-.528-.132-.528-.528v-1.318c0-4.747-.133-11.075-.53-18.854h.265m.528 31.247c.396 4.352.528 7.12.528 8.176v.263h-.79v-8.44h.263m-.264 11.604c.66.263 1.056.79 1.056 1.714v.79h-.53l-.527-2.24v-.264m.527 3.56c.397.79.66 2.11.793 3.823h-.264c-.265 0-.66-.527-1.057-1.45v-2.373h.527m-.264 4.35c.925.396 1.32 1.32 1.32 2.638v.527c-.66-.528-1.188-.792-1.584-.792v-2.373h.263m-.264 3.164c1.056.658 1.584 1.054 1.584 1.185v1.055h-.264c-.53-.66-1.057-1.055-1.585-1.055.132-.263.264-.66.264-1.186m-.265 2.504c.396 0 1.056.395 1.85 1.055-.133 4.35-.265 7.514-.265 9.492v1.582h-.53c-.66-6.46-1.055-10.416-1.055-11.866v-.264m1.85 20.172v1.978h-.265v-1.978h.264m-4.888 4.615c1.32-.658 2.378-1.054 3.04-1.054.66.396 1.188 1.055 1.584 1.846l-2.907.66c-.925-.66-1.453-.924-1.717-.924v-.527M645.037 18.985c-1.586 1.714-3.04 2.637-4.36 2.637.528 19.382.793 29.93.793 31.643v15.163c0 3.164-.397 9.097-1.322 17.8v9.492c0 .923-.132 2.24-.264 3.69.132 0 .397 3.034.53 8.967 2.773 2.24 4.36 3.296 4.49 3.296 2.643-.66 4.36-1.318 5.153-1.978l-.264-1.318v-.264c0-4.614-.132-7.78-.528-9.493.132-2.637.264-5.01.264-7.25V79.765l-1.322-24.655c.396-6.196.528-10.15.528-11.865 0-4.746-.132-10.68-.264-17.8.132-.922.264-1.713.264-2.504h-.264c-.925-2.636-1.982-3.955-3.17-3.955h-.265m-3.04 3.692c.926 0 1.983-.395 3.04-1.318-.132 3.03-.132 4.745-.132 5.14.264 13.185.528 20.7.66 22.678-.132 3.164-.264 6.197-.264 9.23v16.216c0 3.033-.13 7.252-.263 12.658 1.057 7.25 1.585 12.92 1.585 17.27 0 .397-.132.66-.264.924 0 .264-1.32.923-3.83 2.11-.662 0-1.058-2.11-1.058-6.197V90.313l1.585-23.864c-.264-14.37-.528-24.26-.793-29.93l.265-1.845c-.133-2.373-.265-4.615-.265-6.856V25.18l-.264-2.505m4.624 0l.53.264c.13 11.208.263 18.327.263 21.36 0 .66-.132 2.637-.264 5.67h-.263c0-1.187-.133-1.978-.265-2.11l.265-1.055c-.397-8.966-.53-15.162-.53-18.458v-5.67h.265m.265 35.994c.396 3.693.528 6.33.528 7.78l.264.527h-1.058V58.67h.265m.264 11.603c0 .264.133.66.53 1.055v1.45c-.397 0-.66-.79-1.058-2.505h.53m-.265 3.56c.66 0 .924 1.187 1.056 3.692v.264c-.132 0-.66-.53-1.32-1.583v-2.374h.264m0 4.35c.924.397 1.32.924 1.32 1.847v1.32c-.528-.53-1.056-.793-1.585-.793v-2.373h.265m-.265 3.165c1.19.658 1.85 1.317 1.85 2.108-.132 0-.264 0-.264.132-.66-.66-1.19-.923-1.586-.923V81.35m0 2.24c.925.66 1.454 1.055 1.586 1.055-.132 5.274-.265 8.833-.265 10.81v.528c-.396 0-.924-3.69-1.585-11.075.132-.395.264-.66.264-.79-.132 0-.264-.133-.264-.264.132 0 .264-.132.264-.264m1.586 20.172v2.242h-.265v-2.242h.265m-4.89 5.142c0-.395.926-.923 2.776-1.582.528.132 1.19.79 1.85 1.846v.264c-.265 0-1.19.263-2.907.79-.925-.922-1.586-1.318-1.718-1.318M677.41 19.513c-2.906 0-6.34 2.11-10.173 6.197-3.435 8.042-5.153 17.667-5.153 29.138.133 5.537.397 9.36.793 11.338 0 1.055-.132 2.77-.264 5.142.132 2.77.66 5.8 1.585 9.23 1.718 6.328 2.643 9.888 2.643 10.547 2.247 7.252 3.964 10.81 4.89 10.81 0 1.716 1.056 3.693 3.302 5.67 0 1.583 3.7 2.9 11.098 3.824 1.454 0 2.907-.792 4.625-2.506 4.492-3.823 6.738-6.065 6.738-6.724 0-.66-.66-1.846-1.85-3.823 0-1.846-1.057-3.033-3.303-3.692l-.53.264c-2.51 4.613-5.02 6.986-7.794 6.986h-1.98c-1.587-.13-3.172-.79-4.626-1.977-1.98 0-3.963-4.088-5.68-12.13 0-.265.13-.66.528-1.056V81.35c0-3.298-.265-10.68-.793-22.415.66-4.087 1.057-6.065 1.19-6.197.66-5.933 1.452-11.47 2.377-16.48 0-.133-.132-.396-.264-.792 1.057-4.614 1.718-6.856 2.114-6.856h1.19c1.056 0 1.717 0 1.85.132 1.716 0 3.962 2.11 7 6.46h.53c1.98-.922 3.17-1.582 3.83-2.24 0-.265-.395-2.242-1.056-5.934-3.964-5.01-7.267-7.515-10.04-7.515h-2.776m-13.74 35.335c.396-7.648.793-12.526 1.32-14.504.133-4.087 1.322-8.438 3.568-13.316 3.17-3.955 6.078-5.933 8.588-5.933h1.982c3.04 0 6.21 2.11 9.645 6.46v.792c-.66.79-1.19 1.186-1.32 1.186h-.266c0-.132-.132-.395-.264-.79-2.774-2.374-5.417-3.956-7.795-4.616-.264 0-1.057.132-2.246.528-4.096 2.77-6.21 5.933-6.21 9.493-1.982 6.988-2.906 15.953-2.906 26.896.132 13.185.66 19.777 1.585 19.777 0 5.407 1.454 11.604 4.36 18.59 3.172 2.77 6.08 4.09 8.59 4.09h1.98c2.907 0 5.814-2.375 8.588-6.99l1.322 1.056c0 .263-.397 1.054-1.057 2.505-3.04 4.615-6.474 6.988-10.04 6.988-3.833 0-7.664-2.505-11.364-7.383-2.51-5.67-3.7-8.965-3.7-10.152-2.51-9.625-3.832-16.085-3.832-19.25.133-1.186.397-1.977.53-2.373-.53-3.296-.926-7.647-1.058-13.052M677.675 26.5c0-.395.132-.527.396-.527h.794v.79h-.793l-.395-.262m2.51-.527c0 .132.132.396.264.79v.265h-.265c-.264 0-.396-.132-.53-.527v-.527h.53m1.85 1.32c.66.526 1.057.79 1.453.79v.66c-1.32-.66-1.982-1.188-1.982-1.45h.53m-7.797 1.713l.528.263c-.66 2.24-1.057 3.69-1.057 4.482l-1.056-.527c-.132 0-.264-.132-.264-.528 1.057-1.714 1.585-3.032 1.585-3.69h.264m10.305 0c.66.13 1.19.79 1.585 1.845v.263c-1.057-.79-1.585-1.318-1.585-1.582v-.527m3.17 2.637c.66-.923 1.058-1.32 1.19-1.32h.264l.263 1.32v.527c0 .264-.528.66-1.453 1.055h-.264v-1.582m-15.326 2.373c.528.132.793.395.793.66v1.58c-.265 0-.66-.13-1.19-.526l.265-.527v-1.187h.132m.264 3.032c.396 0 .53.132.53.528v.527h-.794c0-.264-.132-.66-.397-1.055h.66m-1.188 1.055c.793.66 1.19 1.055 1.19 1.32v.658h-.265l-.66-.527c-.397 0-.53.132-.53.528.133.396.53.66 1.19 1.056 0 3.032-.793 8.965-2.51 17.8 0 3.954.264 10.415.792 19.248v.79h-.264c-.66-2.504-1.057-7.91-1.057-16.216v-4.35c.397-10.68 1.058-17.404 2.115-20.305m22.99 62.76c.924.394 1.32.79 1.452 1.317-.925.923-1.453 1.32-1.453 1.32h-.264l-.793-.53c0-.394.396-1.054 1.057-2.108m-1.586 2.637c.397 0 .53.13.53.526v.264c-.397.66-.794 1.055-1.058 1.055-.396 0-.53-.132-.53-.528v-.264c.398-.395.53-.79.53-1.054h.528m-3.17 3.03c.396-.658.792-1.054 1.057-1.054h.792v.264c-.66.923-1.057 1.318-1.32 1.318-.265 0-.397-.13-.53-.527m-13.872-.263c2.907 1.583 5.285 2.374 7.002 2.374 1.982 0 3.832-.66 5.68-1.845h.266c.396.263.66.527.66.79v.265c0 .395-.132.527-.528.527l-.66-.527-.53.263c0 .132.133.396.265.79 0 .397-.528.66-1.585 1.056-7.003-1.056-10.57-2.242-10.57-3.693" style="-inkscape-font-specification:Cute Cartoon" fill="#87a990"/><path d="M743.68 17.008c-.13 0-.528.395-.924 1.318-1.717.923-2.642 3.56-2.642 8.175v1.847c.396 2.9.528 4.482.528 4.878v7.25c0 6.725.264 10.945.793 12.658-.396 2.374-.66 8.834-.793 19.514 0 3.032.132 4.878.264 5.67 1.19 18.59 1.85 30.455 1.85 35.466v1.845c1.91 1.832 1.923 1.772 4.624.792 6.87-1.187 10.702-2.11 11.627-3.033 1.717-3.032 2.907-4.746 3.567-5.142 2.907-5.8 4.36-13.844 4.36-24.26 0-5.273-.396-9.23-1.057-11.866-3.963-7.78-7.4-12-10.305-12.658v-.264l3.963-3.032c3.303-4.22 4.89-9.097 4.89-14.635V30.984c0-2.768-1.455-6.328-4.493-10.415-1.982-1.583-5.417-2.637-10.57-3.297h-3.303c-.265 0-.397.133-.53.53l-1.056-.792h-.793m2.38 2.11h2.377c3.04 0 5.946.527 8.72 1.713 3.832 3.034 5.68 6.857 5.68 11.34v6.46c0 10.02-2.773 16.48-8.454 19.382-1.586.395-2.378.79-2.378 1.186 0 .132.528.66 1.585 1.32 1.982 0 4.096 1.713 6.342 5.14 3.7 3.56 5.55 9.494 5.55 17.536 0 1.846-.133 4.22-.265 7.252-1.454 11.47-3.303 17.272-5.285 17.272 0 .66-4.228 1.977-12.552 3.823 0-1.317-.132-3.69-.264-7.25 0-1.978.132-5.67.264-11.075 0-3.56-.528-13.45-1.585-29.534.132-2.636.396-4.745.793-6.46v-.263c0-.923-.133-2.24-.53-3.824-.527-18.853-.792-30.192-.792-34.016v-.527l.793.527m-4.097 7.647c0-4.22.397-6.328 1.322-6.328h.132c0 5.274.396 17.667 1.32 37.048-.395 2.374-.528 3.956-.528 4.615 0 2.768.396 10.415 1.056 22.677v1.318l.265.396-2.245 2.11c-.53-6.197-.793-11.866-.793-17.272.132-7.78.396-11.602.793-11.602l-.53-.923.53-5.67c-.53-2.24-.793-5.67-.793-10.415 0-1.32.132-3.165.264-5.406 0-.79-.264-3.823-.793-8.965v-1.583m7.4-6.196c-.794.395-1.19 1.186-1.19 2.373.132 6.725.396 10.02.793 10.02.132 6.462.132 11.208.132 13.977 0 3.296-.132 6.196-.396 8.702l1.453.79c.528 0 1.982-.66 4.228-1.846 3.038-.923 4.756-7.252 5.417-19.25 0-5.67-.793-9.624-2.38-11.866-.66-1.582-3.302-2.505-8.058-2.9m1.32 2.11h2.115v.263c-.66 1.056-1.585 1.583-2.906 1.583V22.94l.265-.527.528.264m2.114 1.846c.793-1.055 1.32-1.582 1.586-1.582l.396.264c-.53 1.055-.926 1.583-1.19 1.583h-.793v-.264m3.04-.264c0 .395-.133.922-.53 1.58l-.528-.262c0-.66.13-1.187.528-1.582l.528.263m.528 1.318c.925.79 1.586 4.22 1.85 10.284-.132 1.186-.264 2.11-.264 3.032h-.264c0-6.592-.66-10.943-1.85-12.92.396 0 .528-.133.528-.396m-5.68.395c2.774 0 4.49 1.714 4.888 5.01 0 .132-.132.396-.264.66.396 2.11.528 4.22.528 6.196 0 1.45-.528 5.933-1.453 13.448 0 1.318-1.322 2.373-3.964 3.296v-.79c0-.66.13-1.715.528-3.297 0-5.933-.397-14.108-1.057-24.524h.793m-.528 37.445c-.53.263-.793.527-.793.79v18.195c0 5.142.396 12.92 1.32 23.205-.13.66-.263 1.32-.263 1.846 0 .264.395.527 1.056.79 5.285-2.24 8.19-3.822 8.72-4.745 1.453-1.847 2.51-5.143 3.17-10.022 0-5.273-.924-11.602-2.906-18.985-.793-2.77-2.642-5.142-5.417-7.252-2.51-1.845-4.095-3.163-4.624-3.822h-.265m1.32 3.296l1.586 1.054-.263 1.055h-1.32l-.53-.264.265-1.846h.264m2.378 1.845c.397 0 .53.13.53.527v.264h-1.058c.132-.395.264-.66.264-.79h.264m.66 1.45c0-.264.133-.396.53-.396l.528.264-.264.395c0 .396.132.528.528.528l.528-.263c0 .132.133.264.265.264-.398.66-.794 1.056-1.058 1.056 0-.396-.397-.923-1.057-1.846m-3.04.527c1.454 0 2.908 1.846 4.625 5.406 1.454 2.24 2.114 10.416 2.114 24.523 0 .79-.132 1.582-.264 2.505-.132.66-1.85 1.452-5.417 2.638h-.264c-.926-14.635-1.322-22.81-1.322-24.787 0-1.58.132-5.01.264-10.283h.264m4.888 1.582c.133 0 .397-.133.793-.264l.53.263-.794 1.054c-.264 0-.396-.132-.53-.527v-.528m.794 1.845c0-.395.132-.527.53-.527h.263c.264 0 .66.66 1.057 1.977 1.717 5.934 2.51 12.13 2.51 18.59-.528 3.956-1.057 5.934-1.585 5.934 0-14.636-.925-23.338-2.775-25.975m-13.74 15.954c1.057-1.452 1.717-2.11 1.85-2.11h.264v5.14c-.13 0-.396-.13-.792-.263-.396 0-.66.396-.793 1.32h-.528v-.265c0-.66.528-1.582 1.585-2.77v-.262c0-.396-.132-.528-.528-.528l-1.057 1.32v-1.583m.264 6.195c0-.923.662-1.846 1.85-2.9v2.637c-.528 0-1.188.13-1.85.263m1.85 0v15.426c0 .924-.396 1.452-1.056 1.847-.132-10.548-.397-15.82-.793-15.82l1.85-1.452m0 18.46c.53 0 .925-.265 1.322-.924 3.963-.922 7.927-1.977 11.89-3.427v.263c-.396.923-.792 1.32-1.056 1.32 0 .658-4.096 1.713-12.155 3.295v-.526M784.898 18.985c-1.585 1.714-3.038 2.637-4.36 2.637.53 19.382.793 29.93.793 31.643v15.163c0 3.164-.395 9.097-1.32 17.8v9.492c0 .923-.132 2.24-.264 3.69.132 0 .396 3.034.528 8.967 2.775 2.24 4.36 3.296 4.492 3.296 2.643-.66 4.36-1.318 5.153-1.978l-.265-1.318v-.264c0-4.614-.133-7.78-.53-9.493.133-2.637.265-5.01.265-7.25V79.765l-1.32-24.655c.396-6.196.528-10.15.528-11.865 0-4.746-.132-10.68-.265-17.8.133-.922.265-1.713.265-2.504h-.265c-.924-2.636-1.98-3.955-3.17-3.955h-.265m-3.038 3.692c.924 0 1.98-.395 3.038-1.318-.132 3.03-.132 4.745-.132 5.14.264 13.185.53 20.7.66 22.678-.13 3.164-.263 6.197-.263 9.23v16.216c0 3.033-.133 7.252-.265 12.658 1.057 7.25 1.586 12.92 1.586 17.27 0 .397-.132.66-.265.924 0 .264-1.322.923-3.832 2.11-.66 0-1.057-2.11-1.057-6.197V90.313l1.586-23.864c-.264-14.37-.528-24.26-.792-29.93l.264-1.845c-.132-2.373-.264-4.615-.264-6.856V25.18l-.264-2.505m4.624 0l.528.264c.132 11.208.264 18.327.264 21.36 0 .66-.132 2.637-.264 5.67h-.264c0-1.187-.132-1.978-.264-2.11l.264-1.055c-.396-8.966-.53-15.162-.53-18.458v-5.67h.266m.264 35.994c.396 3.693.528 6.33.528 7.78l.265.527h-1.056V58.67h.264m.264 11.603c0 .264.132.66.53 1.055v1.45c-.398 0-.662-.79-1.058-2.505h.528m-.264 3.56c.66 0 .925 1.187 1.057 3.692v.264c-.132 0-.66-.53-1.32-1.583v-2.374h.263m0 4.35c.925.397 1.32.924 1.32 1.847v1.32c-.527-.53-1.056-.793-1.584-.793v-2.373h.264m-.264 3.165c1.19.658 1.85 1.317 1.85 2.108-.133 0-.265 0-.265.132-.66-.66-1.19-.923-1.586-.923V81.35m0 2.24c.925.66 1.453 1.055 1.585 1.055-.133 5.274-.265 8.833-.265 10.81v.528c-.396 0-.925-3.69-1.586-11.075.132-.395.264-.66.264-.79-.132 0-.265-.133-.265-.264.132 0 .264-.132.264-.264m1.585 20.172v2.242h-.265v-2.242h.264m-4.89 5.142c0-.395.926-.923 2.775-1.582.53.132 1.19.79 1.85 1.846v.264c-.264 0-1.19.263-2.907.79-.925-.922-1.585-1.318-1.717-1.318M819.914 20.963c-2.378.132-3.7.396-3.83.528v-.263c-4.89 1.714-7.268 4.878-7.268 9.23-2.246 16.084-3.303 30.587-3.303 43.508v9.625c0 9.097 1.32 16.217 4.096 21.623 1.716 1.977 2.64 3.164 2.64 3.56h.133l.53-.264c.527.394.792.658.792.79 1.585.264 2.378.66 2.378 1.055l.528-.264h1.455c1.717-.13 4.492-1.186 8.323-3.163 2.51-1.32 4.096-6.197 4.89-14.635 0-1.187-.134-2.9-.266-5.142.53-6.988.793-11.866.793-14.503V62.363c0-1.187-.132-2.77-.528-4.88 0-.262.132-.658.528-1.317l-.264-1.45v-5.67c0-4.746-.528-8.702-1.585-11.866 0-5.142-1.057-9.625-3.038-13.448-2.246-1.846-4.625-2.77-7.003-2.77m-11.098 56.43c0-5.668.397-11.206 1.057-16.48 0-14.898 1.057-26.632 3.04-35.07.924-2.374 3.17-3.56 6.737-3.56 2.775.395 4.756 1.054 5.68 1.977 2.115 3.295 3.172 6.46 3.172 9.624 1.19 7.252 1.718 13.712 1.718 19.25-.133 2.768-.265 4.35-.265 4.878.397 2.505.53 5.142.53 8.042v3.297c0 3.692-.265 9.757-.794 18.063.133 2.242.265 3.956.265 4.88 0 .658-.396 2.636-1.057 6.195-.66 5.67-3.038 8.44-7.134 8.44-3.964 0-7.135-1.715-9.38-5.143-1.982-1.714-3.17-9.89-3.568-24.392m11.362-53.397c-3.435.395-5.152 1.845-5.152 4.22-.925 0-1.718 6.723-2.643 20.04v4.086c0 3.56 0 7.516-.132 11.867.133 1.185.133 2.24.133 3.295-.264 4.614-.528 9.756-.66 15.557l1.19 8.702c2.245 7.516 4.227 11.34 5.944 11.34h2.378c4.493 0 6.74-5.275 6.74-15.69 0-28.084-.398-42.06-1.323-42.06-1.717-13.58-3.83-20.7-6.474-21.358m-13.872 51.55c.396-19.116 1.19-30.587 2.246-34.542.66-10.416 1.982-15.954 3.7-16.48-.926 1.713-1.322 3.69-1.322 5.668-.925 0-2.114 15.426-3.435 46.41v4.087c0 2.504.132 4.614.528 6.196 0 8.702 1.85 14.9 5.417 18.59l-1.453 1.187c-2.51-1.45-4.492-7.91-5.68-19.513 0-.79.13-2.77.263-5.933 0-1.45-.132-3.428-.264-5.67m10.834-48.914c.792-.923 1.717-1.32 2.774-1.32.66.397 1.19 1.188 1.85 2.374 3.04 11.207 4.624 22.282 4.624 32.962-.132.658-.264 1.58-.264 2.768v.263c0 1.847.132 4.22.528 7.253-.132 5.933-.264 9.888-.264 11.602l.264.527c-.132 0-.264.132-.264.264V91.5c0 3.297-.66 5.802-1.85 7.516-.132-18.195-.396-28.083-.792-29.665.132-2.636.264-5.405.264-8.174l-1.19-16.085c-.792-8.042-1.32-12.26-1.585-12.788 0-2.505-.924-4.22-2.906-5.142h-1.19v-.527m-3.435 22.94c0-1.713.132-4.218.528-7.514.66-9.363 1.586-14.11 2.642-14.11h1.19l1.057.66c1.19 0 2.51 10.68 4.095 32.04 0 2.768 0 5.404-.132 7.91.264 8.965.53 18.722.66 29.137 0 .66-.264 1.583-.66 2.505 0 1.055-1.19 1.583-3.7 1.583h-.263c-3.964-4.22-5.946-11.34-5.946-21.36v-3.56c0-.527.132-3.56.53-9.097v-.527c0-1.977-.134-3.295-.266-4.086.132-1.582.265-3.165.265-4.878v-8.702m0 56.034l.792.528-1.32 1.582c-.53-.264-.794-.528-.794-.79v-.265c.66 0 1.057-.396 1.057-1.055h.265m2.378 1.32v.79c-.66.132-1.057.395-1.057.79l-1.32-.263v-.264c0-.13.395-.526 1.056-1.317l1.32.264m.53.527c.528 0 1.056.132 1.717.527-.398.66-.662 1.056-.926 1.056h-.53l-1.32-.264c0-.13.397-.527 1.057-1.318m1.72 1.582c.395-.66.924-1.055 1.848-1.055l.53.265c0 .264-.794.66-2.38 1.055v-.264M847.09 20.436l2.114 87.81c.528 0 1.057.79 1.717 2.372 11.358-.312 19.93 5.47 21.67-5.933l-.265-.527c-.397 0-1.057.132-1.982.264-5.68-1.055-10.04-1.583-12.948-1.583l-.528.263c0-.132-.133-.264-.53-.264-.792-.66-1.32-9.494-1.452-26.238l.264-1.714-.265-1.318c.264-11.735.396-27.03.396-45.883 0-2.637-.13-5.142-.395-7.383 0-1.582-1.454-2.505-4.492-2.637l-3.303 2.77m3.567-1.188c.925.13 1.453.263 1.585.263 1.19 0 1.85 2.24 1.85 6.592-.132.396-.264.66-.264.79l.264 1.32-.264 2.373c.132 0 .264.132.264.264-.132 0-.264.13-.264.263v.923l.264.528h-.264c0 .66.132 1.054.264 1.318l-.264 4.087c-.132 22.283-.264 38.368-.264 48.39 0 .394.132 1.185.264 2.108-.132 0-.264.264-.264.79.528 8.835 1.056 13.977 1.585 15.427l2.51-.263h1.32c4.493 0 6.74.395 6.74 1.054.395 0 .66-.13.923-.263 1.454.395 2.775.527 3.964.527h.264c0 .527-.13.923-.263 1.318 0 .528-.925.792-2.642.792h-.265l-1.453-.264c-.396.132-.66.264-.793.264-.132 0-.396-.132-.792-.264l-.53.264c-.395-.132-.66-.264-1.056-.264h-1.32c-1.322 0-4.36-.132-9.25-.528-.264 0-.528-1.186-.792-3.427.528-4.878.793-8.042.793-9.756v-5.142c-1.19-28.083-2.114-50.76-2.643-68.033 0-.396.264-.792.793-1.45m-1.85 1.318c0 .395.132.923.397 1.714 0 .395-.133.922-.397 1.582l.397 1.186c.396 20.7.924 39.554 1.717 56.562-.66 1.45-1.32 2.242-1.716 2.242-.53-32.04-.793-52.87-.793-62.232v-1.054h.397m1.057 65.13c0-.92.397-1.58 1.057-1.844v1.582c-.13 0-.395.132-.792.263h-.264m0 1.977c0-.923.397-1.45 1.057-1.714v.923c-.263.527-.527.79-.792.79h-.264m.264 1.056c.265-.527.53-.79.793-.79-.13.922-.395 1.317-.792 1.317v-.528m0 1.582c.265-.527.53-.79.793-.79v.79c-.263.527-.527.79-.792.79v-.79m0 1.714c.265-.396.53-.66.793-.66v.396c0 .923-.263 1.45-.792 1.582v-1.318m.793 1.846v2.373c0 .79-.13 2.11-.263 3.824h-.264l-.265-2.636v-2.242l.265-1.318h.528m1.058 14.635c.132 0 .396-.133.793-.265 1.19 0 2.38.132 3.568.527.396-.13.66-.263.793-.263h.265c-.132.394-.528.658-1.32 1.054l-1.455-.264h-2.642v-.79m5.417 1.054c.264-.528.528-.792.793-.792h.792c0 .264-.396.528-1.057.792h-.528m1.85 0c0-.396.528-.66 1.585-.792h.132v.528l-1.19.264h-.527m1.98 0c0-.264.398-.528 1.323-.792v.264c0 .264-.397.528-1.057.79h-.264v-.262m1.85 0c0-.264.132-.396.53-.528h.527c0 .264-.396.528-1.057.79v-.262m1.586-.264c.132 0 .396-.132.792-.264h.53c0 .264-.398.528-1.058.79h-.264v-.526m4.095.527c0-.263.397-.527 1.057-.79v1.054h-1.057v-.263M886.23 30.456c-2.246 16.085-3.303 30.588-3.303 43.51v9.624c0 9.097 1.32 16.217 4.096 21.623 1.717 1.977 2.642 3.164 2.642 3.56h.132l.53-.264c.527.394.792.658.792.79 1.584.264 2.377.66 2.377 1.055l.528-.264h1.454c1.716-.13 4.49-1.186 8.322-3.163 2.51-1.32 4.096-6.197 4.89-14.635 0-1.187-.134-2.9-.266-5.142.53-6.988.793-11.866.793-14.503V62.363c0-1.187-.133-2.77-.53-4.88 0-.262.133-.658.53-1.317l-.265-1.45v-5.67c0-4.746-.53-8.702-1.586-11.866 0-5.142-1.058-9.625-3.04-13.448m-18.1 53.66c0-5.668.397-11.206 1.057-16.48 0-14.898 1.057-26.632 3.04-35.07.924-2.374 3.17-3.56 6.737-3.56 2.775.395 4.756 1.054 5.68 1.977 2.115 3.295 3.172 6.46 3.172 9.624 1.19 7.252 1.718 13.712 1.718 19.25-.132 2.768-.265 4.35-.265 4.878.396 2.505.528 5.142.528 8.042v3.297c0 3.692-.264 9.757-.793 18.063.132 2.242.264 3.956.264 4.88 0 .658-.397 2.636-1.058 6.195-.66 5.67-3.038 8.44-7.134 8.44-3.964 0-7.135-1.715-9.38-5.143-1.982-1.714-3.17-9.89-3.568-24.392m11.363-53.397c-3.436.395-5.153 1.845-5.153 4.22-.925 0-1.718 6.723-2.643 20.04v4.086c0 3.56 0 7.516-.132 11.867.132 1.185.132 2.24.132 3.295-.264 4.614-.528 9.756-.66 15.557l1.19 8.702c2.245 7.516 4.227 11.34 5.944 11.34h2.38c4.492 0 6.738-5.275 6.738-15.69 0-28.084-.397-42.06-1.322-42.06-1.717-13.58-3.83-20.7-6.473-21.358m-13.873 51.55c.396-19.116 1.19-30.587 2.246-34.542.66-10.416 1.982-15.954 3.7-16.48-.926 1.713-1.322 3.69-1.322 5.668-.925 0-2.114 15.426-3.435 46.41v4.087c0 2.504.13 4.614.527 6.196 0 8.702 1.85 14.9 5.417 18.59l-1.453 1.187c-2.51-1.45-4.49-7.91-5.68-19.513 0-.79.132-2.77.264-5.933 0-1.45-.132-3.428-.264-5.67m10.834-48.914c.792-.923 1.717-1.32 2.774-1.32.66.397 1.19 1.188 1.85 2.374 3.04 11.207 4.624 22.282 4.624 32.962-.132.658-.264 1.58-.264 2.768v.263c0 1.847.132 4.22.528 7.253-.132 5.933-.264 9.888-.264 11.602l.264.527c-.132 0-.264.132-.264.264V91.5c0 3.297-.66 5.802-1.85 7.516-.132-18.195-.396-28.083-.792-29.665.132-2.636.264-5.405.264-8.174l-1.19-16.085c-.792-8.042-1.32-12.26-1.585-12.788 0-2.505-.925-4.22-2.907-5.142h-1.19v-.527m-3.434 22.94c0-1.713.13-4.218.527-7.514.66-9.363 1.586-14.11 2.643-14.11h1.19l1.056.66c1.19 0 2.51 10.68 4.095 32.04 0 2.768 0 5.404-.13 7.91.263 8.965.528 18.722.66 29.137 0 .66-.264 1.583-.66 2.505 0 1.055-1.19 1.583-3.7 1.583h-.264c-3.964-4.22-5.946-11.34-5.946-21.36v-3.56c0-.527.132-3.56.53-9.097v-.527c0-1.977-.133-3.295-.266-4.086.133-1.582.265-3.165.265-4.878v-8.702m0 56.034l.79.528-1.32 1.582c-.528-.264-.793-.528-.793-.79v-.265c.66 0 1.057-.396 1.057-1.055h.265m2.377 1.32v.79c-.66.132-1.057.395-1.057.79l-1.32-.263v-.264c0-.13.395-.526 1.056-1.317l1.32.264m.53.527c.528 0 1.056.132 1.717.527-.397.66-.66 1.056-.925 1.056h-.528l-1.322-.264c0-.13.397-.527 1.057-1.318m1.718 1.582c.396-.66.925-1.055 1.85-1.055l.528.265c0 .264-.792.66-2.377 1.055v-.264M940.49 24.787c-1.19 0-2.906.132-5.02.527l-.925-.264c-1.586.396-3.435 2.11-5.68 5.142-2.115 3.56-3.965 10.548-5.682 20.832.132 10.943.264 19.645.264 26.37v4.086c0 2.505.793 7.78 2.51 15.69.925 5.142 2.642 9.23 5.153 12.394 4.756 3.428 7.663 5.142 8.588 5.142h.528c4.888 0 7.795-.66 8.984-2.11 4.36-5.142 6.474-11.075 6.474-17.8-.132 0-.264-.263-.264-.658v-.528l.528-.79c0-.396-.132-.528-.528-.528 0-6.46.264-12.13.793-16.745l-.265-.527c.132 0 .265-.132.265-.264V70.67c0-2.902-.793-4.747-2.38-5.407l.266-.527c-.266-.527-.53-.79-.794-.79h-.793c-4.756-.528-7.795-.792-8.984-.792h-.794c-1.98 0-3.038.395-3.303 1.318v1.32l-.264 2.504c1.32.66 2.113 1.186 2.245 1.846 0 .66 2.378 1.186 7.002 1.845 0 .132-.132.264-.264.264-.132 7.912-.264 14.11-.264 18.46v3.69c0 4.484-1.983 8.044-5.946 10.55h-1.454c-.396 0-.528-.133-.528-.528-2.246 0-3.964-4.483-5.417-13.45-1.19-6.064-1.982-11.733-2.378-17.007.396-3.164.66-11.866.792-26.237 0-5.67.396-9.098 1.32-10.548 1.718-3.296 3.7-4.878 6.21-4.878h2.246c3.04 2.77 4.625 4.483 4.625 4.878l-.264.528c0 .922.66 1.845 2.114 2.768 1.19-.395 1.982-.527 2.114-.527h2.51c.397 0 .53-.133.53-.397 0-.79-.397-1.714-1.322-2.637V35.07c0-.263-.265-1.054-.793-2.24-3.833-5.406-7.003-8.043-9.778-8.043h-1.982m-7.266 3.69c1.85-1.45 4.492-2.108 7.927-2.108h1.058c.528 0 1.717.526 3.7 1.58 3.83 3.297 5.68 5.934 5.68 7.912v.263c0 .396-.132.528-.528.528h-2.114v-.528c0-3.428-1.982-5.933-5.945-7.515h-4.095c-2.246 0-4.492 1.846-6.738 5.67-1.718 0-3.17 11.075-4.36 33.225.528 8.833 1.32 15.953 2.246 21.622 1.453 11.207 4.228 17.14 8.588 17.8 6.342 0 9.91-4.22 10.834-12.79v-8.833c0-6.988.265-12.657.793-17.272-.528-.264-.793-.527-.793-.79l-1.585.263c-2.51-.132-4.757-.264-6.475-.264-.264 0-.396-.13-.528-.394v-1.32c.264-.526.528-.79.792-.79h1.585c1.717 0 4.492.264 8.323.79h.66c0 1.583-.13 5.407-.263 11.34 0 .923.132 2.373.264 4.087 0 18.327-3.172 28.347-9.514 30.325-1.717 0-2.51-.132-2.51-.264-5.55 0-9.248-2.637-11.098-7.91-2.775-10.812-4.228-18.327-4.228-22.415V68.03c0-4.22-.132-9.756-.264-16.744 0-.528.925-4.88 2.642-13.053 1.454-4.615 3.17-8.043 5.153-10.02.133 0 .397.132.794.263m-1.057 10.02c1.717-5.537 4.492-8.306 8.323-8.306h1.982c2.907 1.32 4.36 2.637 4.36 3.956v.132c-1.585-1.45-2.907-2.506-4.096-3.297h-2.51c-.528 0-1.85.528-3.964 1.583-2.113 1.977-3.435 3.955-3.83 6.196h-.265V38.5m18.63-.265h1.452c.395 0 .527.132.527.527v.264h-1.98l-1.323.264c0-.132-.132-.264-.528-.264V38.5l1.85-.265m-18.63.79v.528h-.264v-.527h.265m-1.85 13.58c.66-7.78 1.19-11.602 1.585-11.602V50.1c0 .66-.132 1.583-.264 2.77-.66 0-1.057-.132-1.32-.264m-.265.79c.925 0 1.453.265 1.585.792v.528c0 .395-.132.66-.264 1.054-.925 0-1.32-.13-1.32-.527v-1.846m-.133 2.77c.926.13 1.454.395 1.454.79v1.846c-.528-.264-.793-.527-.793-.79l-.527.263c.925.922 1.32 1.713 1.32 2.373v.922h-.263c-.793-.66-1.19-1.055-1.19-1.187v-4.22m.133 5.407c.66.527 1.057.79 1.32.79v3.692h-.263c0-.922-.53-1.45-1.454-1.582v-1.054l.265-1.846h.133m1.32 5.01v4.614h-.527c-.925 0-1.454-.66-1.454-2.11v-.263l.66.528h.265v-.263c-.396-.66-.66-1.055-.925-1.055.132-1.186.264-2.11.264-3.032l1.718 1.582m22.725.527c.395 0 .79 1.45 1.056 4.35-.53 6.592-.793 12.79-.793 18.722h-.53l-.263-1.186V71.46c0-.923.132-2.373.264-4.35h.265m-8.72 1.713v.264c-.398.66-.794 1.055-1.058 1.055h-.264c-.925 0-1.718-.396-2.114-1.32h3.435m.263 1.056c.264-.527.528-.79.793-.79h.396c-.396.658-.66 1.054-.925 1.054h-.264v-.264m1.19.264c.395-.66.792-1.055 1.056-1.055h.527c-.396.79-.66 1.186-1.056 1.318h-.528v-.263m-15.722 1.582v.79c0 6.725.528 11.34 1.585 13.845 1.586 12.392 3.567 18.59 5.946 18.59v.526c-.924 0-2.113-1.054-3.302-3.164-1.19 0-2.51-5.537-3.964-16.48-.396 0-.925-4.747-1.718-14.108h1.454m22.196 18.722c.66.264 1.057.923 1.057 1.846h-.264c-.398 0-.662-.528-.794-1.582v-.264m0 2.11c.396 0 .66.66 1.057 1.845-.132.265-.264.53-.264.924l.263.528h-.264c-.662-.396-1.058-.79-1.058-1.055v-2.242h.264m-.53 3.033c.926.66 1.323 1.45 1.323 2.373v.528c-.926-.395-1.323-1.186-1.323-2.11v-.79m-.264 2.373c.925.66 1.32 1.45 1.32 2.242l-.263.528c-.925-.66-1.32-1.582-1.32-2.505.13 0 .263-.132.263-.264m-.528 2.11c.925.66 1.32 1.32 1.32 2.242v.264c0 .395-.13.527-.528.527h-.264c-.396-1.187-.66-1.978-.66-2.373v-.264l.132-.395m-.132 2.242c.264 1.055.528 1.582.924 1.582 0 .396-.264 1.055-.792 1.978l-1.19-.923c0-.397.133-1.188.53-2.638h.528m-1.057 3.296c.66.396 1.057.79 1.057 1.055l-1.057 1.846c-.132 0-.397-.133-.793-.265h-.264v.264l.527.79v.264c-.793 1.186-1.32 1.714-1.585 1.714h-.265c-.396-.264-.792-.396-1.056-.396v-.527c2.114-2.505 3.17-4.088 3.17-4.747h.266m-8.06 7.252c1.322 0 2.643-.66 4.096-1.846h.264c.397.395.793.527 1.057.527v.265c0 .79-2.51 1.45-7.398 1.846-1.718-.263-2.643-.658-2.643-1.054l3.04.264h1.584M994.583 25.182c-1.453.923-2.246 1.846-2.246 2.77v1.845c-.528 4.087-1.453 12.92-2.642 26.5h-.265c0-.13-3.567-6.328-10.833-18.326-3.568-4.218-5.946-6.987-7.003-8.437-.132 0-1.057.396-3.04 1.32l-.527-.265c-.396.132-1.057 1.318-1.982 3.823 2.246 2.243 3.7 4.748 4.624 7.517 3.038 3.69 5.416 6.987 7.134 10.02 3.567 4.878 6.606 9.23 9.116 13.316v.528c-.925 3.824-1.453 8.57-1.85 14.24l-2.378 19.777c-.792 5.274-1.19 9.23-1.19 11.866v.264l.265.527c.397 0 .53-.132.53-.527.263 0 .792.132 1.452.527l.528-.263 3.7.792h.13c.398 0 1.058-2.77 1.85-8.307.66-7.78 1.718-16.876 2.908-27.028l4.36-27.292c1.453-14.37 2.378-22.282 2.774-23.732 0-.923-1.85-1.45-5.417-1.45m.53 1.186c1.452 0 2.773.13 3.698.526l-3.434 27.556c-2.378 14.635-3.832 24.128-4.36 28.61-1.453 14.9-2.643 24.524-3.567 28.61l-3.437-.79c1.057-9.097 2.247-17.272 3.7-24.523.66-3.297 1.453-10.417 2.51-21.624l-7.927-11.998c-8.852-12.79-13.212-19.777-13.212-20.964 1.19-.395 1.982-.66 2.378-.66.793 1.188 3.04 4.09 6.87 8.44 7.003 12.393 11.363 19.38 12.948 21.095.53 0 .793-.66.793-1.847 0-.923 1.057-11.603 3.04-32.17v-.264m-1.323.79c0 1.582-.528 6.856-1.453 15.953h-.528l1.584-15.953h.396m-25.763 5.406c0 .66 1.32 2.9 3.83 6.987 7.268 10.284 10.835 15.822 10.835 16.745l-.132.527-.528-.263c-4.228-6.725-7.135-10.68-8.588-12.13-3.04-5.67-5.153-8.966-6.474-10.02l.528-1.846h.53m24.045 11.602v.79h-.264v-.79h.263m-.264 2.637v1.45h-.53v-.263l.264-1.187h.265m0 2.505c-.134 1.055-.398 1.582-.794 1.582v-.264l.264-1.318h.53m-.53 2.9v1.055h-.264V52.21h.264m0 2.242v.79h-.528v-.79h.528m-.793 2.373c0-.395.132-.527.53-.527h.263v.264c0 .395-.132.527-.528.527h-.265v-.265m-7.53.79c0-.394.132-.526.528-.526s.528.13.528.526v.264c-.132 0-.396.132-.792.264h-.263v-.528m2.113 1.055v.66h-.528c-.264 0-.396-.132-.53-.527v-.132h1.058m.53 1.45c.395 0 .527.133.527.53v.526h-.528c-.265 0-.397-.132-.53-.527v-.53h.53m1.584 1.847v.528h-1.057v-.528h1.057m.265 1.32c.395.13.66.526.923 1.185h-.66c-.264 0-.53-.263-.793-.923l.53-.264m-.266 6.196c.397-2.768.793-4.22 1.454-4.22 0 1.98-.132 3.297-.265 4.22h-1.19m1.19.66l-.264 1.318-.397-.264-.793.528h-.264v-1.32c.925 0 1.32-.13 1.32-.526l.397.264m-1.98 3.164c.13-.396.66-.923 1.716-1.32v3.166c-.133 0-.265-.132-.66-.264-.662.132-.926.264-1.058.264v-1.846m-.265 4.878c.133-1.977.66-2.9 1.85-2.9h.132c-.133.395-.265 1.318-.397 2.9-.132 0-.264-.132-.264-.263l-1.323.264m0 .79c.53 0 .925-.13 1.322-.262l.263.527v.526c0 .264-.53.66-1.586 1.055v-1.845M985.6 82.8c0-1.056.66-1.583 1.85-1.583 0 .923-.398 1.45-1.323 1.845h-.528V82.8m0 1.58c.263.133.66.265 1.056.265h.264c-1.19 5.405-2.246 11.734-3.17 18.986-.397 4.88-.793 7.252-1.19 7.252h-.264l3.04-25.71c0-.132.13-.395.263-.79" style="-inkscape-font-specification:Cute Cartoon"/></g></svg>